<svg width="138" height="138" viewBox="0 0 138 138" fill="none" xmlns="http://www.w3.org/2000/svg">
    <path d="M22.3477 110.176V128.589H83.0814H107.274H126V123.592V114.008V110.176C126 108.519 124.657 107.176 123 107.176H70.1248H54.739H25.3477C23.6908 107.176 22.3477 108.519 22.3477 110.176Z" fill="#252525"/>
    <path d="M111.993 105.121V88.5464C111.993 86.8895 110.65 85.5464 108.993 85.5464H80.2076H69.6485H33.1055C31.4486 85.5464 30.1055 86.8895 30.1055 88.5464V91.8189V100.795V105.121H111.993Z" fill="#252525"/>
    <path d="M47.5625 65.6196V81.2209H92.8161V75.8472V67.89V65.6196C92.8161 63.9628 91.4729 62.6196 89.8161 62.6196H62.6813H54.1448H50.5625C48.9056 62.6196 47.5625 63.9628 47.5625 65.6196Z" fill="#252525"/>
    <path d="M85.1009 27.9173H77.0766C75.7764 27.9173 74.6241 27.0798 74.223 25.843L73.5529 23.7772L71.5558 17.6203C70.7187 15.0395 67.0674 15.0395 66.2303 17.6203L63.5631 25.843C63.1619 27.0797 62.0097 27.9173 60.7095 27.9173H58.0345H52.1954C49.4448 27.9173 48.2999 31.4362 50.5239 33.0548L57.4204 38.074C58.4701 38.8379 58.9093 40.1903 58.5087 41.4252L56.0278 49.0738C55.131 51.8386 58.2966 54.1354 60.6468 52.425L67.1277 47.7083C68.18 46.9425 69.6061 46.9425 70.6584 47.7083L72.0687 48.7348L77.7029 52.8352C79.8757 54.4165 82.8025 52.2931 81.9733 49.7369L79.2773 41.4252C78.8768 40.1903 79.3159 38.8379 80.3656 38.074L86.8662 33.343C89.215 31.6336 88.0058 27.9173 85.1009 27.9173Z" fill="#EAB669"/>
    <path d="M69.8626 19.1444L68.9647 16.3706C68.3673 14.5252 65.7565 14.5252 65.1591 16.3706L61.4202 27.9206C61.0195 29.1582 59.8669 29.9966 58.566 29.9966H55.6408M71.9631 25.6333L72.7036 27.9206C73.1042 29.1582 74.2569 29.9966 75.5578 29.9966H87.6704C89.6061 29.9966 90.4128 32.4721 88.8488 33.6126L79.0336 40.7703C77.986 41.5342 77.5477 42.8847 77.947 44.1182L81.6936 55.6917C82.2905 57.5357 80.1783 59.0656 78.6124 57.9237L76.3282 56.2579M70.4021 51.9364L68.8295 50.7896C67.7762 50.0215 66.3475 50.0215 65.2942 50.7896L55.5114 57.9237C53.9454 59.0656 51.8333 57.5357 52.4302 55.6917L56.1767 44.1182C56.576 42.8847 56.1378 41.5342 55.0902 40.7703L45.2749 33.6126C43.7109 32.4721 44.5177 29.9966 46.4533 29.9966H49.4993" stroke="#E3E3E3" stroke-linecap="round"/>
    <path d="M100.137 38.6304H111.773" stroke="#E3E3E3" stroke-linecap="round"/>
    <path d="M97.75 45.3159L105.978 53.5748" stroke="#E3E3E3" stroke-linecap="round"/>
    <path d="M97.75 31.9453L105.978 23.6864" stroke="#E3E3E3" stroke-linecap="round"/>
    <path d="M33.9883 38.6304H22.3517" stroke="#E3E3E3" stroke-linecap="round"/>
    <path d="M36.375 45.3159L28.1467 53.5748" stroke="#E3E3E3" stroke-linecap="round"/>
    <path d="M36.375 31.9453L28.1467 23.6864" stroke="#E3E3E3" stroke-linecap="round"/>
    <path d="M90.8733 83.5998V77.9761M43.4648 83.5998V67.1333C43.4648 65.4765 44.808 64.1333 46.4648 64.1333H50.3606M90.8733 69.6488V67.1333C90.8733 65.4764 89.5302 64.1333 87.8733 64.1333H59.3036" stroke="#E3E3E3" stroke-linecap="round"/>
    <path d="M108.114 103.174V86.5996C108.114 84.9428 106.771 83.5996 105.114 83.5996H76.3287M26.2266 103.174V98.8483M65.7696 83.5996H29.2266C27.5697 83.5996 26.2266 84.9428 26.2266 86.5996V89.8721" stroke="#E3E3E3" stroke-linecap="round"/>
    <path d="M122.336 110.312V106.066C122.336 104.41 120.993 103.066 119.336 103.066H62.8603M122.336 120.478V125.777H102.403M46.4828 103.066H15.0039C13.3471 103.066 12.0039 104.41 12.0039 106.066V125.777H76.6519" stroke="#E3E3E3" stroke-linecap="round"/>
</svg>
