<svg width="138" height="138" viewBox="0 0 138 138" fill="none" xmlns="http://www.w3.org/2000/svg">
    <path d="M58.3346 93.9004C40.2933 93.9004 25.668 108.566 25.668 126.657H91.0013C91.0013 108.566 76.3759 93.9004 58.3346 93.9004Z" fill="#252525"/>
    <path d="M38.0013 99.8881C42.3286 97.7659 47.1929 96.5747 52.3346 96.5747C70.3759 96.5747 85.0013 111.24 85.0013 129.332H19.668C19.668 125.834 20.2146 122.464 21.227 119.304" stroke="#E3E3E3" stroke-linecap="round" stroke-linejoin="round"/>
    <path d="M58.1654 90.224C69.119 90.224 77.9987 81.3198 77.9987 70.3359C77.9987 59.352 69.119 50.4478 58.1654 50.4478C47.2117 50.4478 38.332 59.352 38.332 70.3359C38.332 81.3198 47.2117 90.224 58.1654 90.224Z" fill="#EAB669"/>
    <path d="M71.8346 70.0014C71.8346 59.0175 62.955 50.1133 52.0013 50.1133C41.0477 50.1133 32.168 59.0175 32.168 70.0014C32.168 80.9853 41.0477 89.8895 52.0013 89.8895" stroke="#E3E3E3" stroke-linecap="round" stroke-linejoin="round"/>
    <path d="M118.332 18.0191V13.401C118.332 12.411 117.937 11.4617 117.234 10.7617C116.53 10.0617 115.577 9.66846 114.582 9.66846H89.4713M118.332 32.0635V39.5285C118.332 40.5184 117.937 41.4678 117.234 42.1678C116.53 42.8678 115.577 43.261 114.582 43.261H99.582L90.0375 52.761C89.4069 53.3887 88.332 52.942 88.332 52.0523V43.261H81.4966H69.3447H62.082C61.0875 43.261 60.1336 42.8678 59.4304 42.1678C58.7271 41.4678 58.332 40.5184 58.332 39.5285V13.401C58.332 12.411 58.7271 11.4617 59.4304 10.7617C60.1336 10.0617 61.0875 9.66846 62.082 9.66846H68.9649" stroke="#E3E3E3" stroke-linecap="round" stroke-linejoin="round"/>
    <path d="M97.668 19.0278L105.001 26.3814L97.668 33.735" stroke="#E3E3E3" stroke-linecap="round" stroke-linejoin="round"/>
    <path d="M79 19.0278L71 26.3814L79 33.735" stroke="#E3E3E3" stroke-linecap="round" stroke-linejoin="round"/>
    <path d="M91.6654 19.0278L84.332 33.735" stroke="#E3E3E3" stroke-linecap="round" stroke-linejoin="round"/>
</svg>
