<svg width="138" height="138" viewBox="0 0 138 138" fill="none" xmlns="http://www.w3.org/2000/svg">
    <g clip-path="url(#clip0_9361_48027)">
        <path d="M44.712 58.2469C51.5998 52.3894 60.3477 49.1771 69.3879 49.1856C78.4304 49.1707 87.1825 52.3786 94.0752 58.234C100.968 64.0894 105.55 72.2094 107.001 81.1384M45.1129 85.2518C45.0593 81.47 46.4631 77.8128 49.0331 75.0389C47.8685 71.7575 48.0011 68.1551 49.4036 64.9683C49.4036 64.9683 52.6025 63.9457 59.8638 68.8734C66.1001 67.1614 72.6823 67.1614 78.9186 68.8734C86.1964 63.949 89.3689 64.9683 89.3689 64.9683C90.7719 68.1546 90.9068 71.7564 89.746 75.0389C92.3166 77.8146 93.7184 81.475 93.6595 85.2584C93.6595 99.8861 84.764 103.1 76.2886 104.036C77.199 104.951 77.9024 106.051 78.3516 107.261C78.8007 108.472 78.985 109.764 78.8921 111.052V121.589C78.8921 122.605 79.5074 123.731 81.4393 123.363C90.0211 120.512 97.3072 114.697 101.991 106.959M47.0912 95.2345C50.1804 101.525 56.4215 103.38 62.4408 104.069C61.0578 105.417 60.2014 107.215 60.0259 109.139C59.0928 109.664 58.0649 109.999 57.0017 110.124C55.9384 110.249 54.861 110.162 53.8316 109.868C52.8023 109.573 51.8415 109.078 51.0047 108.41C50.168 107.742 49.472 106.914 48.957 105.975C48.3481 104.921 47.5064 104.02 46.4962 103.341C45.4859 102.662 44.3339 102.223 43.1281 102.057C43.1281 102.057 39.4164 102.011 42.87 104.374C44.896 105.666 46.3933 107.64 47.0912 109.94C47.0912 109.94 49.2778 117.251 59.8638 114.954C59.8837 118.141 59.8638 120.663 59.8638 121.573C59.8638 122.579 59.2617 123.694 57.3629 123.363C48.7833 120.513 41.4987 114.7 36.8143 106.965C32.13 99.2297 30.3521 90.0787 31.7993 81.1515C32.2475 78.3869 32.9959 75.6997 34.0201 73.1332" stroke="#E3E3E3" stroke-linecap="round" stroke-linejoin="round"/>
        <path d="M82.4672 25.8035H77.4005C76.5336 25.8035 75.7654 25.245 75.498 24.4204L75.0709 23.103L73.7688 19.087C73.2231 17.4041 70.8421 17.4041 70.2964 19.087L68.5672 24.4203C68.2998 25.245 67.5316 25.8035 66.6647 25.8035H64.9527H61.1456C59.3517 25.8035 58.6049 28.0982 60.0551 29.154L64.5271 32.41C65.2266 32.9193 65.5193 33.8206 65.2524 34.6437L63.6857 39.4758C63.088 41.3192 65.1987 42.8501 66.7653 41.7095L70.8554 38.7316C71.5571 38.2208 72.5081 38.2208 73.2098 38.7316L74.1032 39.3821L77.7768 42.0567C79.1933 43.0881 81.1019 41.7038 80.5615 40.0369L78.8128 34.6437C78.546 33.8206 78.8386 32.9193 79.5381 32.41L83.6444 29.4203C85.2098 28.2806 84.4036 25.8035 82.4672 25.8035Z" fill="#EAB669"/>
        <path d="M74.7641 27.0711H74.1423C73.7088 27.0711 73.3247 26.7918 73.191 26.3795L72.5397 24.3706L71.2375 20.3546L70.4526 17.9338C70.1536 17.0117 68.8491 17.0117 68.5501 17.9338L65.8117 26.3795C65.678 26.7918 65.2939 27.0711 64.8605 27.0711H62.4215H58.6143H55.9943C55.0261 27.0711 54.623 28.3096 55.4057 28.8795L62.5822 34.1045C62.932 34.3591 63.0783 34.8098 62.9449 35.2213L60.2045 43.6729C59.9057 44.5946 60.9611 45.3601 61.7444 44.7898L64.0986 43.0758M79.419 27.0711H83.0084C83.9766 27.0711 84.3797 28.3096 83.597 28.8795L76.4205 34.1045C76.0708 34.3591 75.9244 34.8098 76.0579 35.2213L78.7982 43.6729C79.097 44.5946 78.0416 45.3601 77.2583 44.7898L75.2455 43.3243L71.572 40.6497L70.09 39.5707C69.7391 39.3152 69.2636 39.3152 68.9128 39.5707L67.848 40.3459" stroke="#E3E3E3" stroke-linecap="round"/>
        <path d="M38.5492 39.7454H33.4826C32.6157 39.7454 31.8474 39.1869 31.5801 38.3622L31.1529 37.0449L29.8508 33.0289C29.3051 31.346 26.9242 31.346 26.3785 33.0289L24.6492 38.3622C24.3818 39.1869 23.6136 39.7454 22.7467 39.7454H21.0347H17.2276C15.4338 39.7454 14.6869 42.0401 16.1371 43.0959L20.6091 46.3519C21.3086 46.8612 21.6013 47.7625 21.3344 48.5856L19.7677 53.4177C19.17 55.2611 21.2808 56.792 22.8474 55.6514L26.9375 52.6735C27.6391 52.1627 28.5902 52.1627 29.2918 52.6735L30.1852 53.324L33.8588 55.9986C35.2754 57.03 37.184 55.6457 36.6435 53.9788L34.8949 48.5856C34.628 47.7625 34.9207 46.8612 35.6202 46.3519L39.7264 43.3622C41.2919 42.2225 40.4857 39.7454 38.5492 39.7454Z" fill="#EAB669"/>
        <path d="M14.6925 40.5906H12.0725C11.1042 40.5906 10.7011 41.8291 11.4839 42.399L18.6603 47.624C19.0101 47.8787 19.1564 48.3293 19.023 48.7409L16.2827 57.1925C15.9838 58.1141 17.0392 58.8796 17.8225 58.3093L24.9909 53.0902C25.3417 52.8348 25.8173 52.8348 26.1681 53.0902L27.6501 54.1692L31.3237 56.8438L33.3365 58.3093C34.1198 58.8796 35.1752 58.1141 34.8763 57.1925L32.136 48.7409C32.0026 48.3293 32.1489 47.8787 32.4986 47.624L33.7553 46.7091M37.9571 43.6498L39.6751 42.399C40.4579 41.8291 40.0547 40.5906 39.0865 40.5906H30.2204C29.7869 40.5906 29.4028 40.3114 29.2691 39.899L28.6178 37.8901L27.3156 33.8741L26.5307 31.4533C26.2318 30.5312 24.9272 30.5312 24.6282 31.4533L21.8898 39.899C21.7561 40.3114 21.372 40.5906 20.9386 40.5906H19.8065" stroke="#E3E3E3" stroke-linecap="round"/>
        <path d="M122.166 38.4783H117.1C116.233 38.4783 115.465 37.9198 115.197 37.0952L114.77 35.7778L113.468 31.7618C112.922 30.0789 110.541 30.0789 109.996 31.7618L108.266 37.0952C107.999 37.9198 107.231 38.4783 106.364 38.4783H104.652H100.845C99.0509 38.4783 98.3041 40.773 99.7543 41.8288L104.226 45.0848C104.926 45.5941 105.218 46.4954 104.952 47.3185L103.385 52.1506C102.787 53.994 104.898 55.5249 106.465 54.3843L110.555 51.4064C111.256 50.8956 112.207 50.8956 112.909 51.4064L113.802 52.0569L117.476 54.7315C118.893 55.7629 120.801 54.3786 120.261 52.7118L118.512 47.3185C118.245 46.4954 118.538 45.5941 119.237 45.0848L123.344 42.0952C124.909 40.9554 124.103 38.4783 122.166 38.4783Z" fill="#EAB669"/>
        <path d="M115.49 54.1692L114.008 53.0902C113.657 52.8348 113.182 52.8348 112.831 53.0902L105.662 58.3093C104.879 58.8796 103.824 58.1141 104.123 57.1925L106.863 48.7409C106.996 48.3293 106.85 47.8787 106.5 47.624L99.3237 42.399C98.541 41.8291 98.9441 40.5906 99.9123 40.5906H102.532M107.517 40.5906H108.778C109.212 40.5906 109.596 40.3114 109.73 39.899L112.468 31.4533C112.767 30.5312 114.072 30.5312 114.371 31.4533L115.155 33.8741L116.458 37.8901L117.109 39.899C117.243 40.3114 117.627 40.5906 118.06 40.5906H126.926C127.895 40.5906 128.298 41.8291 127.515 42.399L120.338 47.624C119.989 47.8787 119.842 48.3293 119.976 48.7409L122.716 57.1925C123.015 58.1141 121.96 58.8796 121.176 58.3093L119.752 57.2724" stroke="#E3E3E3" stroke-linecap="round"/>
    </g>
    <defs>
        <clipPath id="clip0_9361_48027">
            <rect width="121" height="109" fill="white" transform="translate(9 15)"/>
        </clipPath>
    </defs>
</svg>
