<svg width="138" height="138" viewBox="0 0 138 138" fill="none" xmlns="http://www.w3.org/2000/svg">
    <g clip-path="url(#clip0_9361_48048)">
        <path d="M24.84 39.5601C24.352 39.5601 23.884 39.754 23.539 40.099C23.1939 40.4441 23 40.9121 23 41.4001V68.0801C23 79.7315 32.5085 89.2401 44.16 89.2401C54.6898 89.2401 63.0839 81.3413 64.6767 71.2461C65.8112 72.8178 66.8893 74.4229 68.1698 75.8605C65.8817 85.5556 63.028 97.6787 61.6472 103.54C61.5839 103.809 61.5824 104.09 61.6428 104.361C61.7032 104.631 61.8239 104.885 61.996 105.102C62.1681 105.319 62.3871 105.495 62.6366 105.616C62.8861 105.737 63.1596 105.8 63.4369 105.8H74.7788C75.194 105.8 75.5971 105.66 75.9227 105.403C76.2483 105.145 76.4771 104.785 76.572 104.381C77.8261 99.057 79.4169 92.3012 80.9133 85.9518C84.3191 87.7351 88.2593 89.2401 92.92 89.2401C105.078 89.2401 115 79.3178 115 67.1601C115 55.0023 105.078 45.0801 92.92 45.0801C84.3669 45.0801 76.9663 50.1152 73.3233 57.5683C69.4607 50.8817 66.5703 43.8312 65.5177 40.7963C65.3921 40.435 65.1572 40.1219 64.8455 39.9003C64.5337 39.6788 64.1607 39.5598 63.7783 39.5601H52.44C51.952 39.5601 51.484 39.754 51.139 40.099C50.7939 40.4441 50.6 40.9121 50.6 41.4001V68.0801C50.6 71.6469 47.7268 74.5201 44.16 74.5201C40.5932 74.5201 37.72 71.6469 37.72 68.0801V41.4001C37.72 40.9121 37.5261 40.4441 37.181 40.099C36.836 39.754 36.368 39.5601 35.88 39.5601H24.84ZM26.68 43.2401H34.04V68.0801C34.04 73.6433 38.5967 78.2001 44.16 78.2001C49.7233 78.2001 54.28 73.6433 54.28 68.0801V43.2401H62.5277C63.9831 47.3165 67.0587 55.2693 71.8822 62.6463C72.0755 62.9426 72.3501 63.1768 72.6731 63.321C72.9961 63.4653 73.3538 63.5133 73.7034 63.4595C74.0531 63.4056 74.3798 63.2522 74.6444 63.0174C74.909 62.7827 75.1004 62.4767 75.1956 62.136C77.4097 54.1967 84.6229 48.7601 92.92 48.7601C103.081 48.7601 111.32 56.9986 111.32 67.1601C111.32 77.3215 103.081 85.5601 92.92 85.5601C88.1646 85.5601 83.9764 83.8307 80.6042 81.7579C80.3561 81.6057 80.0754 81.5147 79.7852 81.4921C79.4951 81.4695 79.2037 81.5161 78.935 81.6279C78.6663 81.7398 78.428 81.9139 78.2396 82.1357C78.0513 82.3576 77.9182 82.621 77.8514 82.9043C76.3178 89.4104 74.6802 96.3596 73.3233 102.12H65.762C67.2856 95.6519 69.8108 84.9274 71.9469 75.8785C72.0165 75.5837 72.0122 75.2762 71.9345 74.9835C71.8567 74.6907 71.7079 74.4217 71.5013 74.2002C69.1242 71.6467 66.9578 68.6949 65.0361 65.6399C64.8232 65.3028 64.5066 65.0439 64.1339 64.9023C63.7611 64.7607 63.3525 64.7439 62.9695 64.8546C62.5864 64.9652 62.2497 65.1973 62.0099 65.5159C61.7701 65.8344 61.6403 66.2223 61.64 66.621V68.0801C61.64 77.7358 53.8157 85.5601 44.16 85.5601C34.5043 85.5601 26.68 77.7358 26.68 68.0801V43.2401ZM92.92 56.1201C87.8913 56.1201 83.479 59.5332 82.2286 64.4001C82.0971 64.9122 81.5082 67.4114 80.5863 71.3144C80.5063 71.6517 80.5233 72.0047 80.6352 72.3328C80.7471 72.6609 80.9494 72.9507 81.2188 73.1688C84.0061 75.4272 88.0846 78.2001 92.92 78.2001C98.9909 78.2001 103.96 73.2309 103.96 67.1601C103.96 61.0892 98.9909 56.1201 92.92 56.1201ZM92.92 59.8001C96.9949 59.8001 100.28 63.0851 100.28 67.1601C100.28 71.235 96.9949 74.5201 92.92 74.5201C89.9187 74.5201 86.8966 72.7456 84.4639 70.9155C85.1308 68.0975 85.7597 65.4448 85.7936 65.3129C86.6298 62.058 89.5473 59.8001 92.92 59.8001Z" fill="#E3E3E3"/>
    </g>
    <defs>
        <clipPath id="clip0_9361_48048">
            <rect width="92" height="92" fill="white" transform="translate(23 23)"/>
        </clipPath>
    </defs>
</svg>
