<svg width="538" height="361" viewBox="0 0 538 361" fill="none" xmlns="http://www.w3.org/2000/svg">
    <g clip-path="url(#clip0_9361_46245)">
        <path d="M463.771 201.049V216.352H170.559V191.275C170.559 187.373 172.113 183.631 174.881 180.872C177.648 178.113 181.401 176.563 185.315 176.563H438.979C439.494 176.557 440.003 176.659 440.476 176.862C440.948 177.066 441.372 177.366 441.72 177.743C442.068 178.121 442.333 178.567 442.497 179.053C442.661 179.539 442.72 180.054 442.672 180.565C442.432 182.604 442.61 184.671 443.196 186.64C443.781 188.609 444.762 190.439 446.078 192.019C447.394 193.598 449.018 194.895 450.852 195.83C452.686 196.765 454.691 197.319 456.746 197.458C457.725 197.524 458.707 197.494 459.68 197.368C460.197 197.312 460.72 197.365 461.215 197.525C461.71 197.685 462.166 197.947 462.553 198.295C462.939 198.642 463.246 199.067 463.456 199.542C463.666 200.017 463.774 200.53 463.771 201.049V201.049Z" fill="#EAB669"/>
        <ellipse cx="197.204" cy="193.629" rx="6.40273" ry="6.41344" fill="#1B1B1C"/>
        <ellipse cx="215.133" cy="193.629" rx="6.40272" ry="6.41345" fill="#1B1B1C"/>
        <ellipse cx="233.055" cy="193.629" rx="6.40273" ry="6.41345" fill="#1B1B1C"/>
        <path d="M332.49 133.195C332.49 133.195 271.174 151.396 266.659 160.76C262.143 170.123 432.299 171.803 435.412 163.915C438.526 156.026 375.28 126.037 369.027 128.487C362.775 130.937 346.307 136.016 332.49 133.195Z" fill="#252525"/>
        <path d="M350.13 41.2C361.541 41.2 370.792 31.977 370.792 20.6C370.792 9.22293 361.541 0 350.13 0C338.719 0 329.469 9.22293 329.469 20.6C329.469 31.977 338.719 41.2 350.13 41.2Z" fill="#252525"/>
        <path d="M391.026 74.4858C391.026 74.4858 392.312 39.8532 355.003 37.5187C317.694 35.1842 298.075 52.4364 304.224 82.8361C305.06 86.2994 310.309 76.7433 319.264 67.8286C328.218 58.9139 342.652 71.1123 373.954 57.5671C379.022 55.502 391.528 92.1484 391.026 74.4858Z" fill="#252525"/>
        <path d="M303.119 63.7246L301.832 63.468C304.624 49.5765 313.887 33.2478 342.178 34.5305C357.681 35.236 369.98 37.8014 378.767 42.1626L378.201 43.3169C369.568 39.0327 357.436 36.5059 342.113 35.8132C327.061 35.1591 308.007 39.4304 303.119 63.7246Z" fill="#45E5E5"/>
        <path d="M339.863 129.18C326.097 129.18 312.331 125.601 303.84 114.249C301.73 114.121 290.435 112.774 289.586 99.3185C288.981 89.506 290.28 83.7339 293.445 82.1561C295.439 81.1685 298.064 81.8739 301.242 84.2854C300.921 81.7317 300.741 79.1625 300.701 76.5892C300.7 76.505 300.715 76.4213 300.745 76.3428C300.776 76.2643 300.822 76.1927 300.881 76.132C300.94 76.0712 301.009 76.0225 301.086 75.9888C301.164 75.955 301.248 75.9367 301.332 75.9351C301.502 75.9412 301.663 76.0103 301.784 76.129C301.906 76.2476 301.978 76.4072 301.988 76.5764C302.018 79.6525 302.276 82.7223 302.76 85.7605L303.094 87.5562L301.718 86.3633C298.36 83.4901 295.761 82.5153 293.999 83.349C291.426 84.6317 290.281 90.3012 290.847 99.2929C291.696 112.877 303.635 113.03 304.149 113.03H304.471L304.664 113.287C310.543 121.317 323.1 130.27 349.538 127.32C365.748 125.511 380.414 119.854 382.988 118.495C387.465 116.058 386.281 108.926 386.269 108.849L386.101 107.912L387.04 108.118C388.239 108.462 389.498 108.548 390.734 108.371C391.969 108.194 393.153 107.758 394.206 107.092C397.577 104.808 399.97 99.3954 401.321 91.1606C402.273 85.3115 401.604 81.5148 399.404 80.1552C399.261 80.0629 399.16 79.9191 399.122 79.754C399.083 79.5889 399.111 79.4155 399.198 79.2701C399.241 79.1971 399.299 79.1335 399.368 79.0834C399.437 79.0332 399.515 78.9975 399.598 78.9783C399.681 78.9591 399.767 78.9569 399.851 78.9718C399.934 78.9867 400.014 79.0183 400.085 79.0648C402.8 80.7451 403.649 84.8754 402.594 91.3658C401.166 100.139 398.658 105.629 394.875 108.143C393.815 108.845 392.625 109.33 391.375 109.57C390.125 109.81 388.84 109.8 387.593 109.542C387.799 111.735 387.838 117.238 383.554 119.611C379.63 121.727 359.74 129.18 339.863 129.18Z" fill="#E3E3E3"/>
        <path d="M394.514 76.8975H393.228V64.0706C393.272 60.3128 392.232 56.6216 390.23 53.4372L391.324 52.7573C393.442 56.1505 394.548 60.0742 394.514 64.0706V76.8975Z" fill="#45E5E5"/>
        <path d="M302.439 64.2369H302.31C302.227 64.2217 302.147 64.1898 302.076 64.1432C302.005 64.0965 301.944 64.0359 301.898 63.9652C301.851 63.8945 301.819 63.8151 301.803 63.7317C301.788 63.6484 301.79 63.5629 301.808 63.4802C304.6 49.5887 313.864 33.2601 342.154 34.5427C357.657 35.2482 369.956 37.8135 378.743 42.1747C378.897 42.2495 379.014 42.3822 379.07 42.5433C379.125 42.7045 379.114 42.8811 379.039 43.0341C378.964 43.1872 378.831 43.3043 378.669 43.3596C378.507 43.4149 378.331 43.404 378.177 43.3291C369.544 39.045 357.412 36.5181 342.09 35.8254C327.012 35.1713 307.959 39.4426 303.07 63.7367C303.038 63.8792 302.957 64.0065 302.842 64.0974C302.728 64.1884 302.586 64.2376 302.439 64.2369V64.2369Z" fill="#E3E3E3"/>
        <path d="M388.455 87.5434C388.348 87.556 388.241 87.556 388.134 87.5434C387.921 87.4755 387.735 87.3421 387.604 87.1623C387.472 86.9825 387.401 86.7657 387.401 86.543C387.272 75.499 385.895 62.9671 382.358 60.8892C380.595 59.8759 375.024 60.8892 367.974 62.1719C358.621 63.9035 345.833 66.2764 332.466 65.7377C332.381 65.7344 332.298 65.7145 332.221 65.6792C332.145 65.6439 332.076 65.5938 332.018 65.5319C331.961 65.4699 331.916 65.3974 331.887 65.3182C331.858 65.2391 331.845 65.155 331.848 65.0708C331.864 64.904 331.941 64.7489 332.065 64.6352C332.188 64.5216 332.349 64.4574 332.517 64.455C345.73 65.0066 358.441 62.6337 367.73 60.902C375.616 59.4398 380.827 58.4649 383.001 59.7347C387.748 62.4797 388.558 78.3081 388.674 85.7477L391.942 81.13C392.783 79.9499 393.233 78.5372 393.228 77.0896V64.0959C393.273 60.3381 392.233 56.6468 390.231 53.4624C390.185 53.3914 390.153 53.3116 390.138 53.228C390.123 53.1444 390.125 53.0587 390.144 52.976C390.163 52.8933 390.199 52.8153 390.249 52.7468C390.3 52.6783 390.363 52.6207 390.437 52.5774C390.582 52.4903 390.757 52.463 390.922 52.5013C391.088 52.5396 391.232 52.6404 391.324 52.7826C393.442 56.1758 394.549 60.0995 394.515 64.0959V77.128C394.522 78.8417 393.992 80.5147 392.997 81.9125L389.317 87.0432C389.227 87.1918 389.101 87.3154 388.95 87.4028C388.8 87.4902 388.629 87.5385 388.455 87.5434V87.5434Z" fill="#E3E3E3"/>
        <path d="M385.369 93.3416H357.336L360.102 92.059C367.235 89.2707 375.161 89.2707 382.294 92.059L385.369 93.3416ZM364.669 92.059H377.908C373.551 91.0705 369.027 91.0705 364.669 92.059V92.059Z" fill="#E3E3E3"/>
        <path d="M340.158 93.3416H312.125L314.892 92.059C322.025 89.2707 329.951 89.2707 337.084 92.059L340.158 93.3416ZM319.472 92.059H332.697C328.344 91.0707 323.824 91.0707 319.472 92.059V92.059Z" fill="#E3E3E3"/>
        <path d="M351 88.8643L351.836 87.5816C354.088 84.2722 379.046 79.8855 381.889 79.4237L385.749 78.7695L378.635 82.6176L383.871 84.3492L383.536 85.6319C378.712 84.6442 352.776 88.5564 352.518 88.6077L351 88.8643ZM378.21 81.4503C370.208 82.9382 360.315 85.106 355.58 86.889C361.189 86.0809 372.537 84.5545 379.265 84.3236L375.406 83.0409L378.21 81.4503Z" fill="#E3E3E3"/>
        <path d="M341.829 88.8648L340.375 88.6468C340.234 88.6468 326.467 86.5431 317.102 85.7864L317.205 84.5037C323.766 85.0296 332.462 86.2097 337.184 86.8767C331.302 84.918 325.282 83.4001 319.173 82.3359L319.418 81.0532C339.192 85.0167 340.53 86.9792 340.967 87.6206L341.829 88.8648Z" fill="#E3E3E3"/>
        <path d="M343.529 106.348C346.33 107.039 349.252 107.083 352.072 106.476C352.098 106.464 352.126 106.458 352.155 106.457C352.183 106.456 352.212 106.461 352.239 106.471C352.266 106.481 352.291 106.496 352.312 106.516C352.333 106.536 352.35 106.559 352.361 106.585C352.373 106.611 352.379 106.639 352.38 106.668C352.381 106.697 352.377 106.725 352.366 106.752C352.356 106.779 352.341 106.803 352.321 106.824C352.302 106.845 352.278 106.862 352.252 106.874C350.451 107.938 346.784 109.439 343.349 106.733C343.31 106.702 343.283 106.66 343.272 106.612C343.26 106.564 343.265 106.514 343.286 106.469C343.307 106.425 343.342 106.388 343.387 106.366C343.431 106.344 343.481 106.338 343.529 106.348V106.348Z" fill="#E3E3E3"/>
        <path d="M347.081 122.189C345.033 122.191 342.995 121.915 341.022 121.368C340.86 121.317 340.725 121.206 340.646 121.057C340.566 120.908 340.549 120.734 340.597 120.572C340.621 120.492 340.66 120.417 340.713 120.351C340.766 120.286 340.832 120.232 340.906 120.193C340.981 120.153 341.062 120.129 341.146 120.122C341.23 120.114 341.314 120.124 341.394 120.149C344.923 121.112 348.647 121.112 352.176 120.149C352.338 120.097 352.514 120.11 352.666 120.187C352.818 120.264 352.933 120.398 352.986 120.56C353.036 120.721 353.02 120.896 352.944 121.046C352.867 121.197 352.735 121.312 352.575 121.368C350.799 121.929 348.944 122.206 347.081 122.189V122.189Z" fill="#E3E3E3"/>
        <path d="M339.745 32.3503C341.706 30.9837 344.016 30.2014 346.405 30.0946C348.795 29.9879 351.166 30.5611 353.241 31.7474C353.295 31.7731 353.338 31.8169 353.364 31.8711C353.389 31.9253 353.394 31.9864 353.379 32.0442C353.363 32.1019 353.329 32.1526 353.28 32.1874C353.231 32.2222 353.172 32.2389 353.112 32.2348C350.436 32.0937 343.386 31.8244 339.861 32.6069C339.827 32.6188 339.791 32.6178 339.758 32.6039C339.725 32.59 339.699 32.5643 339.684 32.5319C339.67 32.4996 339.668 32.4629 339.679 32.4292C339.691 32.3956 339.714 32.3674 339.745 32.3503Z" fill="#E3E3E3"/>
        <path d="M353.027 116.25C346.579 116.233 340.137 115.865 333.729 115.147C333.559 115.125 333.404 115.036 333.299 114.9C333.194 114.764 333.147 114.592 333.169 114.422C333.192 114.252 333.281 114.098 333.418 113.993C333.554 113.889 333.726 113.842 333.897 113.864C343.074 114.906 352.321 115.181 361.544 114.685C361.714 114.674 361.882 114.73 362.011 114.84C362.141 114.95 362.222 115.106 362.239 115.275C362.244 115.36 362.232 115.444 362.205 115.524C362.177 115.604 362.134 115.677 362.078 115.74C362.022 115.803 361.954 115.855 361.878 115.892C361.801 115.929 361.718 115.95 361.634 115.955C358.713 116.173 355.819 116.25 353.027 116.25Z" fill="#E3E3E3"/>
        <path d="M364.192 35.7487C364.079 35.7495 363.967 35.7184 363.871 35.6589C363.725 35.5732 363.618 35.4335 363.575 35.2702C363.532 35.1069 363.555 34.9332 363.639 34.7867C365.365 31.8668 366.393 28.5895 366.642 25.2095C366.891 21.8295 366.355 18.4377 365.076 15.2976C363.797 12.1574 361.81 9.35342 359.268 7.10342C356.726 4.85342 353.698 3.21793 350.419 2.32402C347.14 1.43012 343.698 1.30186 340.362 1.94918C337.025 2.5965 333.883 4.00197 331.179 6.05646C328.476 8.11094 326.284 10.7592 324.774 13.7953C323.263 16.8315 322.475 20.174 322.47 23.5632C322.47 24.7016 322.56 25.8381 322.74 26.9622C322.763 27.1301 322.719 27.3002 322.618 27.4365C322.518 27.5729 322.367 27.665 322.2 27.6934C322.116 27.7061 322.031 27.7023 321.949 27.6821C321.867 27.6619 321.789 27.6258 321.721 27.5757C321.653 27.5257 321.596 27.4627 321.552 27.3905C321.509 27.3182 321.479 27.2381 321.467 27.1547C321.282 25.9663 321.187 24.7657 321.184 23.5632C321.183 19.9741 322.013 16.4332 323.608 13.2159C325.204 9.99867 327.522 7.19181 330.383 5.01365C333.244 2.83549 336.571 1.34472 340.104 0.657406C343.637 -0.0299114 347.282 0.104731 350.754 1.05081C354.227 1.99689 357.434 3.72895 360.126 6.1122C362.817 8.49546 364.921 11.4657 366.273 14.7918C367.625 18.1179 368.19 21.7103 367.923 25.2895C367.656 28.8687 366.564 32.3382 364.733 35.428C364.678 35.5231 364.599 35.6025 364.505 35.6587C364.41 35.7148 364.303 35.7458 364.192 35.7487Z" fill="#E3E3E3"/>
        <path d="M303.567 103.872C303.41 103.87 303.258 103.812 303.14 103.709C303.022 103.605 302.945 103.463 302.924 103.307C302.924 103.192 301.393 91.4553 296.556 88.5564C296.483 88.5129 296.419 88.4554 296.368 88.3872C296.318 88.3191 296.281 88.2416 296.261 88.1593C296.241 88.077 296.237 87.9915 296.25 87.9078C296.263 87.824 296.292 87.7436 296.336 87.6713C296.427 87.527 296.57 87.4235 296.736 87.3828C296.902 87.342 297.077 87.3674 297.225 87.4533C302.589 90.6857 304.133 102.64 304.198 103.153C304.219 103.322 304.173 103.492 304.069 103.626C303.966 103.761 303.813 103.849 303.644 103.872H303.567Z" fill="#E3E3E3"/>
        <path d="M390.063 99.5239C389.914 99.5239 389.771 99.4729 389.656 99.3794C389.541 99.2859 389.462 99.1556 389.433 99.0108C388.236 92.9693 393.704 87.1973 393.936 86.9536C394.056 86.8453 394.214 86.7866 394.376 86.7891C394.538 86.7917 394.693 86.8553 394.811 86.9673C394.928 87.0793 394.998 87.2314 395.008 87.393C395.017 87.5546 394.965 87.7138 394.862 87.8386C394.862 87.9027 389.638 93.3798 390.693 98.7671C390.712 98.8489 390.714 98.9338 390.698 99.0163C390.683 99.0989 390.651 99.1774 390.604 99.2471C390.557 99.3168 390.496 99.3762 390.425 99.4216C390.354 99.4669 390.275 99.4974 390.192 99.511L390.063 99.5239Z" fill="#E3E3E3"/>
        <path d="M215.522 360.282H185.932C180.673 360.275 175.631 358.189 171.912 354.481C168.193 350.773 166.101 345.746 166.094 340.502V277.125C166.094 276.955 166.162 276.792 166.282 276.671C166.403 276.551 166.566 276.483 166.737 276.483C166.908 276.483 167.071 276.551 167.192 276.671C167.312 276.792 167.38 276.955 167.38 277.125V340.502C167.387 345.406 169.344 350.107 172.822 353.574C176.299 357.041 181.014 358.992 185.932 358.999H215.522C215.693 358.999 215.856 359.066 215.977 359.187C216.097 359.307 216.165 359.47 216.165 359.64C216.165 359.81 216.097 359.973 215.977 360.094C215.856 360.214 215.693 360.282 215.522 360.282Z" fill="#E3E3E3"/>
        <path d="M166.784 226.292C166.614 226.289 166.453 226.22 166.333 226.101C166.213 225.981 166.144 225.82 166.141 225.651V187.927C166.144 182.682 168.235 177.653 171.954 173.945C175.674 170.236 180.718 168.151 185.979 168.148H232.538C232.709 168.148 232.872 168.216 232.993 168.336C233.114 168.456 233.181 168.619 233.181 168.789C233.178 168.958 233.109 169.12 232.989 169.239C232.869 169.359 232.708 169.427 232.538 169.431H185.979C181.06 169.434 176.343 171.384 172.865 174.852C169.386 178.32 167.431 183.023 167.427 187.927V225.651C167.427 225.821 167.359 225.984 167.239 226.104C167.118 226.225 166.954 226.292 166.784 226.292Z" fill="#E3E3E3"/>
        <path d="M481.109 360.283H267.327C267.156 360.283 266.993 360.215 266.872 360.095C266.751 359.975 266.684 359.812 266.684 359.641C266.684 359.471 266.751 359.308 266.872 359.188C266.993 359.068 267.156 359 267.327 359H481.109C486.027 358.993 490.742 357.042 494.22 353.575C497.698 350.108 499.654 345.407 499.661 340.504V277.241C499.661 277.071 499.728 276.908 499.849 276.788C499.97 276.668 500.133 276.6 500.304 276.6C500.473 276.603 500.636 276.672 500.756 276.791C500.875 276.911 500.944 277.072 500.947 277.241V340.504C500.94 345.747 498.848 350.774 495.13 354.482C491.411 358.19 486.368 360.276 481.109 360.283V360.283Z" fill="#E3E3E3"/>
        <path d="M500.307 225.638C500.137 225.638 499.973 225.57 499.853 225.45C499.732 225.33 499.664 225.166 499.664 224.996V205.012C499.664 204.842 499.732 204.679 499.853 204.558C499.973 204.438 500.137 204.371 500.307 204.371C500.477 204.374 500.639 204.443 500.759 204.562C500.879 204.682 500.947 204.843 500.951 205.012V224.996C500.951 225.166 500.883 225.33 500.762 225.45C500.642 225.57 500.478 225.638 500.307 225.638Z" fill="#E3E3E3"/>
        <path d="M439.534 169.431H256.577C256.406 169.431 256.243 169.363 256.122 169.243C256.001 169.122 255.934 168.959 255.934 168.789C255.934 168.619 256.001 168.456 256.122 168.336C256.243 168.216 256.406 168.148 256.577 168.148H439.534C439.704 168.148 439.868 168.216 439.989 168.336C440.109 168.456 440.177 168.619 440.177 168.789C440.174 168.958 440.105 169.12 439.985 169.239C439.865 169.359 439.703 169.427 439.534 169.431V169.431Z" fill="#E3E3E3"/>
        <path d="M213.808 254.883C212.17 254.883 210.568 254.398 209.206 253.491C207.843 252.583 206.781 251.293 206.154 249.784C205.527 248.274 205.363 246.613 205.683 245.011C206.002 243.408 206.791 241.936 207.95 240.781C209.109 239.626 210.585 238.839 212.192 238.521C213.799 238.202 215.465 238.365 216.979 238.991C218.493 239.616 219.787 240.675 220.698 242.033C221.608 243.392 222.094 244.989 222.094 246.622C222.09 248.812 221.216 250.911 219.663 252.46C218.11 254.008 216.005 254.879 213.808 254.883V254.883ZM213.808 239.644C212.424 239.644 211.071 240.054 209.92 240.821C208.77 241.587 207.872 242.677 207.342 243.952C206.813 245.227 206.674 246.63 206.944 247.984C207.214 249.337 207.881 250.58 208.859 251.556C209.838 252.532 211.086 253.197 212.443 253.466C213.801 253.735 215.208 253.597 216.487 253.069C217.766 252.541 218.859 251.646 219.628 250.499C220.397 249.351 220.807 248.002 220.807 246.622C220.804 244.773 220.065 243 218.753 241.692C217.442 240.384 215.663 239.648 213.808 239.644V239.644Z" fill="#E3E3E3"/>
        <path d="M213.809 280.434C212.169 280.434 210.567 279.949 209.205 279.041C207.842 278.133 206.78 276.842 206.153 275.332C205.526 273.822 205.363 272.16 205.684 270.557C206.004 268.955 206.794 267.483 207.954 266.328C209.114 265.173 210.592 264.388 212.2 264.07C213.808 263.753 215.475 263.918 216.988 264.546C218.502 265.173 219.795 266.234 220.704 267.594C221.613 268.954 222.096 270.552 222.094 272.186C222.09 274.375 221.216 276.473 219.663 278.019C218.109 279.566 216.004 280.434 213.809 280.434V280.434ZM213.809 265.209C212.424 265.209 211.072 265.618 209.921 266.385C208.77 267.151 207.872 268.241 207.343 269.516C206.813 270.791 206.674 272.194 206.944 273.548C207.214 274.901 207.881 276.145 208.86 277.12C209.838 278.096 211.086 278.761 212.444 279.03C213.801 279.299 215.208 279.161 216.487 278.633C217.766 278.105 218.859 277.211 219.628 276.063C220.397 274.916 220.807 273.567 220.807 272.186C220.804 270.337 220.065 268.564 218.754 267.256C217.442 265.948 215.664 265.212 213.809 265.209V265.209Z" fill="#E3E3E3"/>
        <path d="M213.809 305.999C212.169 305.999 210.567 305.514 209.205 304.606C207.842 303.697 206.78 302.406 206.153 300.896C205.526 299.386 205.363 297.724 205.684 296.122C206.004 294.519 206.794 293.047 207.954 291.892C209.114 290.738 210.592 289.952 212.2 289.635C213.808 289.317 215.475 289.483 216.988 290.11C218.502 290.737 219.795 291.798 220.704 293.158C221.613 294.518 222.096 296.117 222.094 297.751C222.09 299.94 221.216 302.037 219.663 303.584C218.109 305.13 216.004 305.999 213.809 305.999V305.999ZM213.809 290.773C212.424 290.773 211.072 291.182 209.921 291.949C208.77 292.716 207.872 293.806 207.343 295.081C206.813 296.356 206.674 297.759 206.944 299.112C207.214 300.466 207.881 301.709 208.86 302.685C209.838 303.661 211.086 304.325 212.444 304.595C213.801 304.864 215.208 304.726 216.487 304.198C217.766 303.669 218.859 302.775 219.628 301.628C220.397 300.48 220.807 299.131 220.807 297.751C220.804 295.901 220.065 294.128 218.754 292.821C217.442 291.513 215.664 290.776 213.809 290.773V290.773Z" fill="#E3E3E3"/>
        <path d="M213.808 331.562C212.17 331.562 210.568 331.078 209.206 330.17C207.843 329.263 206.781 327.972 206.154 326.463C205.527 324.954 205.363 323.293 205.683 321.69C206.002 320.088 206.791 318.616 207.95 317.461C209.109 316.306 210.585 315.519 212.192 315.2C213.799 314.882 215.465 315.045 216.979 315.67C218.493 316.295 219.787 317.354 220.698 318.713C221.608 320.071 222.094 321.668 222.094 323.302C222.09 325.492 221.216 327.591 219.663 329.139C218.11 330.688 216.005 331.559 213.808 331.562ZM213.808 316.337C212.424 316.337 211.07 316.747 209.919 317.514C208.767 318.281 207.87 319.372 207.341 320.647C206.812 321.923 206.674 323.327 206.945 324.681C207.216 326.035 207.884 327.278 208.864 328.253C209.845 329.229 211.092 329.892 212.451 330.16C213.809 330.428 215.217 330.288 216.496 329.758C217.774 329.228 218.867 328.331 219.634 327.182C220.402 326.033 220.81 324.682 220.807 323.302C220.804 321.453 220.065 319.682 218.753 318.376C217.441 317.07 215.662 316.337 213.808 316.337V316.337Z" fill="#E3E3E3"/>
        <path d="M43.9461 189.582C42.8967 189.585 41.8698 189.276 40.9962 188.697C40.1225 188.117 39.4415 187.292 39.0387 186.326C38.6359 185.359 38.5299 184.296 38.734 183.27C38.9382 182.243 39.4431 181.3 40.1852 180.561C40.9272 179.821 41.8727 179.317 42.9021 179.114C43.9315 178.91 44.9986 179.016 45.9676 179.417C46.9367 179.819 47.7645 180.498 48.3459 181.369C48.9274 182.24 49.2361 183.264 49.2336 184.31C49.2302 185.707 48.6722 187.046 47.6813 188.034C46.6904 189.022 45.3474 189.579 43.9461 189.582V189.582ZM43.9461 180.052C43.1008 180.049 42.2738 180.297 41.5697 180.763C40.8656 181.229 40.3157 181.894 39.9904 182.672C39.6652 183.449 39.5789 184.306 39.7423 185.133C39.9056 185.96 40.3114 186.72 40.9082 187.317C41.505 187.914 42.266 188.321 43.0949 188.486C43.9238 188.651 44.7837 188.568 45.565 188.246C46.3462 187.924 47.0135 187.378 47.4834 186.677C47.9533 185.977 48.2046 185.153 48.2046 184.31C48.2097 183.749 48.1033 183.192 47.8918 182.672C47.6802 182.151 47.3672 181.678 46.9715 181.279C46.5757 180.879 46.1049 180.562 45.5857 180.345C45.0664 180.127 44.5092 180.015 43.9461 180.013V180.052Z" fill="#E3E3E3"/>
        <path d="M30.2458 189.582C29.197 189.582 28.1716 189.272 27.2996 188.691C26.4277 188.109 25.748 187.283 25.3472 186.317C24.9464 185.35 24.8427 184.287 25.0482 183.262C25.2538 182.236 25.7599 181.295 26.5025 180.556C27.245 179.817 28.1903 179.315 29.2194 179.113C30.2484 178.91 31.3147 179.017 32.283 179.419C33.2514 179.821 34.078 180.5 34.6589 181.371C35.2397 182.241 35.5484 183.264 35.5459 184.31C35.5424 185.709 34.9829 187.05 33.9892 188.039C32.9955 189.027 31.6494 189.582 30.2458 189.582V189.582ZM30.2458 180.052C29.4005 180.049 28.5735 180.297 27.8694 180.763C27.1653 181.229 26.6154 181.894 26.2901 182.672C25.9649 183.449 25.8787 184.306 26.042 185.133C26.2054 185.96 26.6111 186.72 27.2079 187.317C27.8048 187.914 28.5658 188.321 29.3946 188.486C30.2235 188.651 31.0828 188.568 31.864 188.246C32.6453 187.924 33.3133 187.378 33.7832 186.677C34.2531 185.977 34.5043 185.153 34.5043 184.31C34.5094 183.749 34.403 183.192 34.1915 182.672C33.9799 182.151 33.667 181.678 33.2712 181.279C32.8754 180.879 32.4047 180.562 31.8854 180.345C31.3661 180.127 30.8089 180.015 30.2458 180.013V180.052Z" fill="#E3E3E3"/>
        <path d="M16.5582 189.582C15.5093 189.582 14.4839 189.272 13.612 188.691C12.74 188.109 12.061 187.283 11.6602 186.317C11.2594 185.35 11.155 184.287 11.3606 183.262C11.5661 182.236 12.0722 181.295 12.8148 180.556C13.5574 179.817 14.5027 179.315 15.5317 179.113C16.5608 178.91 17.6271 179.017 18.5954 179.419C19.5637 179.821 20.3909 180.5 20.9718 181.371C21.5527 182.241 21.8614 183.264 21.8588 184.31C21.8554 185.709 21.2952 187.05 20.3015 188.039C19.3079 189.027 17.9617 189.582 16.5582 189.582V189.582ZM16.5582 180.052C15.7129 180.049 14.8858 180.297 14.1817 180.763C13.4776 181.229 12.9284 181.894 12.6031 182.672C12.2779 183.449 12.191 184.306 12.3543 185.133C12.5177 185.96 12.9234 186.72 13.5203 187.317C14.1171 187.914 14.8781 188.321 15.707 188.486C16.5359 188.651 17.3958 188.568 18.177 188.246C18.9582 187.924 19.6256 187.378 20.0955 186.677C20.5654 185.977 20.8167 185.153 20.8167 184.31C20.8217 183.749 20.7154 183.192 20.5038 182.672C20.2923 182.151 19.9793 181.678 19.5835 181.279C19.1878 180.879 18.717 180.562 18.1977 180.345C17.6785 180.127 17.1213 180.015 16.5582 180.013V180.052Z" fill="#E3E3E3"/>
        <path d="M349.485 149.818L340.094 138.273C340.032 138.209 339.985 138.132 339.955 138.049C339.925 137.965 339.913 137.876 339.92 137.788C339.926 137.699 339.951 137.613 339.992 137.534C340.034 137.456 340.091 137.387 340.161 137.331C340.231 137.276 340.312 137.236 340.398 137.213C340.484 137.191 340.574 137.186 340.661 137.2C340.749 137.214 340.833 137.246 340.908 137.293C340.983 137.341 341.048 137.404 341.097 137.478L349.383 147.74L358.388 134.195C358.436 134.124 358.496 134.063 358.567 134.016C358.638 133.968 358.717 133.935 358.801 133.919C358.885 133.902 358.971 133.902 359.054 133.919C359.138 133.935 359.218 133.968 359.289 134.015C359.36 134.062 359.421 134.123 359.468 134.193C359.516 134.264 359.548 134.343 359.565 134.427C359.582 134.51 359.582 134.596 359.566 134.679C359.549 134.763 359.516 134.842 359.469 134.913L349.485 149.818Z" fill="#E3E3E3"/>
        <path d="M345.561 57.2203C339.617 47.9721 326.945 33.5931 315.353 55.1423C299.516 84.6442 314.349 97.0862 314.504 101.216C314.378 104.26 313.546 107.232 312.073 109.9C312.073 109.9 318.981 106.052 316.074 87.8509C316.074 87.8509 323.999 78.9875 326.816 69.2005C326.816 69.2005 328.964 58.2593 339.154 61.4018C349.343 64.5444 345.561 57.2203 345.561 57.2203Z" fill="#252525"/>
        <path d="M306.298 117.276L307.404 115.301C307.404 115.301 310.132 110.414 309.977 106.13C309.661 104.806 309.117 103.548 308.369 102.41C304.69 95.5605 297.022 81.3098 310.942 55.3482C315.355 47.1518 320.334 42.8933 325.763 42.6752C333.636 42.4315 340.661 50.6022 345.138 57.5672C345.23 57.7102 345.262 57.8837 345.225 58.0496C345.189 58.2155 345.088 58.3603 344.945 58.4523C344.875 58.4994 344.795 58.5318 344.712 58.5477C344.629 58.5635 344.543 58.5624 344.46 58.5445C344.377 58.5265 344.299 58.492 344.23 58.4431C344.16 58.3943 344.102 58.3319 344.058 58.2599C340.597 52.8855 333.765 43.9579 326.175 43.9579H325.814C320.874 44.1503 316.256 48.1909 312.075 55.9511C298.437 81.3099 305.886 95.1501 309.502 101.807C310.356 103.105 310.95 104.555 311.251 106.079C311.271 107.923 310.98 109.757 310.389 111.504C311.997 108.208 313.387 102.154 311.676 91.5713V91.2763L311.881 91.0455C311.958 90.9429 320.514 81.3098 323.46 70.8687C323.48 70.7859 323.518 70.7083 323.57 70.6407C323.622 70.5731 323.688 70.517 323.763 70.476C323.838 70.435 323.921 70.41 324.006 70.4025C324.091 70.3951 324.177 70.4053 324.258 70.4327C324.419 70.4804 324.554 70.5889 324.636 70.7351C324.718 70.8813 324.739 71.0535 324.695 71.2151C321.839 81.1687 314.403 90.0963 312.988 91.6611C316.089 111.581 308.562 116.032 308.24 116.173L306.298 117.276Z" fill="#E3E3E3"/>
        <path d="M169.986 257.23C167.644 257.23 165.277 257.089 163.09 256.884C158.948 256.499 156.297 255.037 155.216 252.561C152.759 246.93 159.398 238.221 159.681 237.849C159.73 237.776 159.794 237.715 159.868 237.668C159.942 237.621 160.025 237.589 160.112 237.575C160.199 237.562 160.287 237.566 160.372 237.587C160.457 237.609 160.537 237.648 160.606 237.701C160.676 237.755 160.734 237.822 160.777 237.898C160.819 237.975 160.845 238.059 160.854 238.147C160.862 238.234 160.852 238.322 160.826 238.405C160.799 238.488 160.755 238.565 160.697 238.631C160.633 238.708 154.265 247.11 156.401 252.048C157.288 254.075 159.578 255.268 163.206 255.614C174.128 256.64 181.526 255.332 184.035 251.933C185.232 250.317 185.321 248.174 184.189 245.519C183.323 243.498 181.795 241.829 179.854 240.786C179.715 240.698 179.616 240.56 179.576 240.401C179.536 240.242 179.558 240.074 179.639 239.931C179.72 239.788 179.853 239.681 180.01 239.633C180.167 239.584 180.336 239.598 180.484 239.67C182.672 240.852 184.395 242.737 185.373 245.019C186.659 248.072 186.544 250.637 185.064 252.715C182.465 256.217 176.277 257.23 169.986 257.23Z" fill="#E3E3E3"/>
        <path d="M175.149 269.583C172.476 269.538 169.816 269.185 167.224 268.531C163.069 267.543 160.47 265.76 159.505 263.233C158.115 259.552 160.792 255.781 160.856 255.627C160.904 255.558 160.965 255.499 161.035 255.454C161.106 255.409 161.184 255.378 161.267 255.364C161.35 255.349 161.435 255.352 161.516 255.37C161.598 255.389 161.676 255.424 161.744 255.473C161.883 255.569 161.978 255.716 162.009 255.881C162.041 256.047 162.005 256.218 161.911 256.358C161.911 256.358 159.556 259.757 160.714 262.771C161.512 264.875 163.802 266.389 167.52 267.274C174.596 268.954 179.935 268.556 182.186 266.106C183.396 264.824 183.64 262.938 182.92 260.694C182.275 258.731 180.971 257.05 179.227 255.935C179.09 255.834 178.997 255.686 178.966 255.519C178.934 255.352 178.968 255.18 179.06 255.037C179.159 254.897 179.308 254.802 179.476 254.771C179.644 254.74 179.818 254.775 179.961 254.87C181.936 256.148 183.412 258.064 184.142 260.296C185.017 263.015 184.67 265.324 183.139 266.979C181.608 268.633 178.79 269.583 175.149 269.583Z" fill="#E3E3E3"/>
        <path d="M172.177 278.779C171.246 278.774 170.319 278.671 169.411 278.472C168.149 278.284 166.943 277.826 165.875 277.131C164.807 276.436 163.902 275.52 163.222 274.444C161.941 271.874 161.665 268.919 162.45 266.158C162.469 265.988 162.555 265.832 162.689 265.725C162.823 265.618 162.994 265.568 163.165 265.587C163.335 265.606 163.491 265.691 163.599 265.825C163.706 265.958 163.756 266.129 163.737 266.299V266.504C163.737 266.504 162.527 270.647 164.38 273.79C164.97 274.713 165.755 275.498 166.679 276.089C167.603 276.68 168.645 277.064 169.732 277.215C173.592 278.01 176.435 277.022 177.67 274.508C178.635 272.52 178.249 270.301 177.259 269.48L177.541 268.864L177.142 269.364L177.914 268.338L177.515 268.839L177.94 268.364L178.133 268.531C179.638 269.813 179.96 272.751 178.828 275.072C178.21 276.276 177.249 277.27 176.065 277.93C174.881 278.589 173.528 278.885 172.177 278.779Z" fill="#E3E3E3"/>
        <path d="M495.542 242.313C489.045 242.313 482.896 239.747 479.872 236.553C477.659 234.193 477.3 231.654 478.946 229.576C484.517 222.469 501.164 224.445 505.448 226.061C505.609 226.121 505.739 226.241 505.81 226.396C505.881 226.551 505.888 226.728 505.828 226.888C505.769 227.048 505.647 227.178 505.492 227.249C505.336 227.32 505.159 227.326 504.999 227.267C500.496 225.599 484.89 224.073 479.963 230.371C478.406 232.346 479.563 234.347 480.811 235.681C485.34 240.478 498.051 243.749 506.928 237.708C508.106 236.997 509.099 236.019 509.826 234.853C510.552 233.688 510.992 232.367 511.11 230.999C511.701 222.546 500.457 212.234 500.341 212.131C500.281 212.073 500.234 212.003 500.201 211.926C500.169 211.849 500.152 211.766 500.152 211.682C500.152 211.598 500.169 211.516 500.201 211.439C500.234 211.361 500.281 211.292 500.341 211.233C500.401 211.173 500.472 211.125 500.55 211.093C500.629 211.06 500.713 211.043 500.798 211.043C500.883 211.043 500.967 211.06 501.045 211.093C501.124 211.125 501.195 211.173 501.255 211.233C501.731 211.682 513.065 222.059 512.434 231.14C512.31 232.705 511.817 234.218 510.994 235.555C510.171 236.893 509.042 238.017 507.7 238.837C504.09 241.188 499.853 242.4 495.542 242.313V242.313Z" fill="#E3E3E3"/>
        <path d="M497.502 257.23C491.211 257.23 485.009 256.217 482.423 252.702C480.931 250.688 480.841 248.123 482.115 245.006C483.089 242.722 484.813 240.836 487.004 239.657C487.152 239.574 487.328 239.553 487.492 239.599C487.656 239.644 487.795 239.753 487.879 239.901C487.959 240.049 487.978 240.223 487.932 240.386C487.886 240.549 487.78 240.687 487.634 240.773C485.693 241.816 484.165 243.485 483.298 245.506C482.205 248.072 482.257 250.252 483.453 251.92C485.962 255.306 493.359 256.614 504.282 255.588C507.91 255.242 510.2 254.049 511.088 252.022C513.249 247.084 506.854 238.682 506.79 238.605C506.698 238.47 506.662 238.305 506.688 238.144C506.714 237.983 506.8 237.838 506.93 237.738C507.059 237.638 507.222 237.591 507.385 237.607C507.548 237.623 507.699 237.7 507.807 237.823C508.09 238.195 514.728 246.904 512.271 252.523C511.178 255.011 508.527 256.473 504.397 256.858C502.21 257.089 499.843 257.23 497.502 257.23Z" fill="#E3E3E3"/>
        <path d="M492.338 269.583C488.697 269.583 485.905 268.71 484.348 267.017C482.792 265.324 482.47 263.054 483.345 260.334C484.075 258.102 485.551 256.187 487.526 254.909C487.596 254.861 487.675 254.829 487.758 254.812C487.841 254.795 487.926 254.795 488.009 254.811C488.092 254.827 488.171 254.859 488.242 254.905C488.312 254.952 488.373 255.012 488.42 255.082C488.468 255.152 488.501 255.23 488.518 255.313C488.535 255.395 488.535 255.481 488.519 255.563C488.503 255.646 488.47 255.725 488.423 255.795C488.377 255.866 488.317 255.926 488.247 255.973C486.509 257.091 485.209 258.772 484.567 260.732C483.847 262.977 484.091 264.849 485.301 266.145C487.552 268.569 492.891 268.993 499.967 267.312C503.685 266.427 505.975 264.914 506.773 262.81C507.931 259.783 505.602 256.397 505.576 256.397C505.489 256.257 505.459 256.089 505.492 255.928C505.526 255.768 505.62 255.625 505.756 255.532C505.891 255.438 506.057 255.4 506.22 255.424C506.383 255.449 506.53 255.536 506.631 255.665C506.747 255.819 509.371 259.603 507.982 263.272C507.017 265.837 504.418 267.582 500.263 268.569C497.669 269.211 495.01 269.551 492.338 269.583Z" fill="#E3E3E3"/>
        <path d="M495.314 278.779C493.971 278.874 492.63 278.574 491.456 277.915C490.283 277.256 489.329 276.267 488.715 275.072C487.583 272.751 487.904 269.8 489.448 268.492L489.602 268.364C489.737 268.26 489.907 268.211 490.077 268.228C490.247 268.245 490.404 268.325 490.516 268.454C490.623 268.581 490.675 268.746 490.661 268.912C490.646 269.078 490.566 269.232 490.438 269.339L490.284 269.48C489.293 270.301 488.908 272.52 489.872 274.508C491.159 277.073 494.002 278.01 497.81 277.214C498.898 277.064 499.94 276.68 500.865 276.089C501.789 275.497 502.573 274.713 503.162 273.79C505.015 270.647 503.806 266.555 503.806 266.504V266.312C503.79 266.141 503.844 265.972 503.953 265.841C504.063 265.71 504.221 265.628 504.391 265.612C504.562 265.597 504.731 265.65 504.863 265.759C504.994 265.869 505.077 266.026 505.092 266.196C505.247 266.786 506.379 271.006 504.308 274.444C503.627 275.522 502.72 276.44 501.649 277.135C500.579 277.83 499.37 278.286 498.106 278.471C497.189 278.674 496.253 278.777 495.314 278.779V278.779Z" fill="#E3E3E3"/>
        <path d="M258.219 161.401C258.105 161.403 257.993 161.372 257.897 161.311C257.749 161.228 257.64 161.089 257.594 160.925C257.548 160.762 257.569 160.587 257.653 160.439C265.372 146.701 322.133 131.245 324.552 130.591C324.723 130.546 324.904 130.572 325.056 130.661C325.208 130.75 325.318 130.895 325.362 131.065C325.407 131.235 325.382 131.416 325.293 131.568C325.203 131.719 325.057 131.829 324.887 131.873C324.308 132.027 266.221 147.83 258.785 161.106C258.725 161.201 258.642 161.278 258.542 161.33C258.443 161.382 258.331 161.406 258.219 161.401Z" fill="#E3E3E3"/>
        <path d="M428.721 161.401C428.637 161.402 428.553 161.385 428.476 161.352C428.398 161.319 428.328 161.27 428.271 161.208C415.534 148.15 374.417 129.256 374.005 129.141C373.928 129.105 373.858 129.055 373.801 128.992C373.743 128.929 373.699 128.856 373.671 128.776C373.642 128.696 373.629 128.611 373.634 128.526C373.638 128.441 373.66 128.358 373.696 128.282C373.731 128.205 373.781 128.136 373.842 128.079C373.904 128.022 373.977 127.978 374.056 127.949C374.135 127.92 374.219 127.908 374.303 127.912C374.387 127.916 374.469 127.937 374.545 127.974C376.243 128.743 416.293 147.15 429.184 160.374C429.273 160.465 429.333 160.58 429.357 160.704C429.381 160.828 429.367 160.957 429.317 161.074C429.268 161.19 429.185 161.289 429.079 161.359C428.973 161.429 428.848 161.466 428.721 161.465V161.401Z" fill="#E3E3E3"/>
        <path d="M492.151 159.721C498.652 159.721 503.922 154.466 503.922 147.984C503.922 141.502 498.652 136.248 492.151 136.248C485.649 136.248 480.379 141.502 480.379 147.984C480.379 154.466 485.649 159.721 492.151 159.721Z" fill="#71A5D2"/>
        <path d="M488.674 165.633C485.921 165.633 483.229 164.819 480.94 163.294C478.651 161.769 476.867 159.602 475.814 157.066C474.76 154.53 474.484 151.739 475.021 149.047C475.559 146.355 476.884 143.882 478.831 141.941C480.777 140 483.258 138.678 485.958 138.143C488.658 137.607 491.457 137.882 494.001 138.932C496.544 139.983 498.719 141.762 500.248 144.044C501.778 146.326 502.594 149.01 502.594 151.755C502.591 155.434 501.124 158.963 498.514 161.565C495.904 164.167 492.365 165.63 488.674 165.633V165.633ZM488.674 139.172C486.175 139.172 483.732 139.911 481.654 141.295C479.576 142.68 477.957 144.648 477.001 146.95C476.045 149.253 475.796 151.786 476.284 154.229C476.773 156.673 477.977 158.918 479.745 160.679C481.513 162.44 483.766 163.638 486.218 164.123C488.669 164.608 491.209 164.356 493.518 163.401C495.826 162.446 497.798 160.829 499.185 158.756C500.571 156.683 501.31 154.246 501.308 151.755C501.304 148.416 499.972 145.216 497.603 142.856C495.234 140.497 492.022 139.172 488.674 139.172V139.172Z" fill="#E3E3E3"/>
        <path d="M488.983 200.933C486.466 200.93 484.053 199.932 482.273 198.157C480.493 196.382 479.492 193.977 479.488 191.467V191.069C479.41 189.75 478.959 188.481 478.187 187.407C477.415 186.333 476.353 185.499 475.125 185.003C473.897 184.506 472.553 184.366 471.248 184.6C469.944 184.834 468.733 185.432 467.755 186.324L467.498 186.58C465.729 188.34 463.336 189.335 460.836 189.35C458.337 189.364 455.933 188.397 454.144 186.657H454.079C452.304 184.878 451.307 182.471 451.307 179.961C451.307 177.452 452.304 175.045 454.079 173.266L454.35 172.996C455.259 172.055 455.871 170.869 456.112 169.584C456.353 168.3 456.213 166.973 455.707 165.767C455.2 164.562 454.352 163.53 453.265 162.8C452.178 162.07 450.9 161.673 449.589 161.657H448.83C446.312 161.657 443.898 160.66 442.117 158.885C440.336 157.11 439.336 154.702 439.336 152.191C439.336 149.681 440.336 147.273 442.117 145.498C443.898 143.722 446.312 142.725 448.83 142.725H449.229C450.552 142.644 451.825 142.192 452.901 141.421C453.977 140.649 454.813 139.59 455.311 138.365C455.809 137.14 455.948 135.8 455.715 134.499C455.481 133.198 454.882 131.99 453.989 131.014L453.732 130.757C452.41 129.431 451.51 127.745 451.147 125.91C450.784 124.075 450.973 122.174 451.691 120.447C452.409 118.719 453.623 117.241 455.181 116.2C456.739 115.159 458.572 114.601 460.447 114.596C462.93 114.585 465.317 115.553 467.086 117.289L467.163 117.366L467.434 117.636C468.386 118.557 469.595 119.172 470.902 119.401C472.21 119.63 473.556 119.462 474.767 118.918H475.024H475.243C476.407 118.393 477.395 117.546 478.091 116.477C478.786 115.409 479.16 114.163 479.167 112.89V112.03C479.167 109.52 480.167 107.112 481.948 105.337C483.728 103.561 486.143 102.564 488.661 102.564C491.179 102.564 493.594 103.561 495.375 105.337C497.155 107.112 498.156 109.52 498.156 112.03V112.428C498.168 113.737 498.566 115.014 499.3 116.1C500.033 117.187 501.069 118.035 502.281 118.54C503.493 119.045 504.826 119.185 506.117 118.942C507.407 118.699 508.598 118.084 509.542 117.174L509.799 116.917C511.579 115.145 513.992 114.149 516.508 114.149C519.024 114.149 521.437 115.145 523.217 116.917L523.294 116.994C525.05 118.768 526.034 121.16 526.034 123.651C526.034 126.143 525.05 128.535 523.294 130.309L523.012 130.578C522.086 131.53 521.468 132.737 521.239 134.043C521.01 135.349 521.179 136.693 521.725 137.902V138.159V138.377C522.254 139.528 523.104 140.503 524.174 141.186C525.244 141.868 526.489 142.229 527.759 142.225H528.505C531.023 142.225 533.438 143.222 535.219 144.997C536.999 146.773 538 149.18 538 151.691C538 154.202 536.999 156.609 535.219 158.385C533.438 160.16 531.023 161.157 528.505 161.157H528.106C526.809 161.163 525.54 161.548 524.459 162.264C523.378 162.979 522.531 163.995 522.021 165.185C521.473 166.393 521.303 167.738 521.532 169.045C521.762 170.351 522.381 171.558 523.308 172.509L523.578 172.778C525.342 174.54 526.34 176.924 526.354 179.413C526.369 181.903 525.399 184.298 523.655 186.08V186.08L523.565 186.157C522.689 187.042 521.646 187.744 520.495 188.221C519.344 188.699 518.109 188.944 516.862 188.94C514.384 188.945 512.004 187.977 510.236 186.247L510.108 186.118L509.889 185.9C508.945 184.99 507.755 184.375 506.464 184.132C505.174 183.889 503.84 184.029 502.628 184.534C501.417 185.039 500.38 185.887 499.647 186.974C498.914 188.06 498.516 189.337 498.503 190.646V191.403C498.51 192.653 498.269 193.892 497.793 195.049C497.318 196.206 496.617 197.258 495.732 198.143C494.847 199.029 493.795 199.732 492.637 200.211C491.479 200.69 490.237 200.935 488.983 200.933V200.933ZM472.399 183.142C474.537 183.173 476.585 184.004 478.137 185.47C479.688 186.936 480.63 188.93 480.775 191.057V191.467C480.775 193.638 481.64 195.719 483.179 197.254C484.718 198.788 486.806 199.651 488.983 199.651C491.16 199.651 493.247 198.788 494.787 197.254C496.326 195.719 497.191 193.638 497.191 191.467V190.71C497.205 189.149 497.678 187.626 498.552 186.33C499.426 185.034 500.661 184.022 502.106 183.42C503.551 182.818 505.142 182.652 506.681 182.942C508.22 183.232 509.64 183.967 510.764 185.054L511.047 185.323C511.803 186.087 512.705 186.692 513.699 187.104C514.693 187.516 515.76 187.726 516.836 187.722V187.722C518.979 187.727 521.037 186.888 522.561 185.387V185.387L522.639 185.31C524.172 183.778 525.033 181.702 525.033 179.538C525.033 177.374 524.172 175.298 522.639 173.766L522.369 173.497C521.278 172.376 520.542 170.96 520.25 169.426C519.959 167.892 520.126 166.306 520.73 164.865C521.334 163.425 522.348 162.192 523.648 161.321C524.948 160.45 526.476 159.978 528.042 159.964H528.441C530.617 159.964 532.705 159.102 534.244 157.567C535.784 156.033 536.648 153.951 536.648 151.781C536.648 149.61 535.784 147.529 534.244 145.994C532.705 144.459 530.617 143.597 528.441 143.597H527.694C526.144 143.597 524.629 143.142 523.337 142.289C522.044 141.436 521.031 140.222 520.426 138.8V138.556V138.325C519.813 136.891 519.641 135.307 519.932 133.775C520.223 132.242 520.963 130.831 522.059 129.718L522.33 129.449C523.857 127.914 524.714 125.839 524.714 123.677C524.714 121.515 523.857 119.44 522.33 117.905H522.252C520.716 116.376 518.634 115.517 516.463 115.517C514.292 115.517 512.21 116.376 510.674 117.905L510.403 118.174C509.279 119.261 507.86 119.996 506.321 120.286C504.782 120.576 503.191 120.41 501.746 119.808C500.301 119.206 499.065 118.194 498.191 116.898C497.318 115.602 496.845 114.079 496.831 112.518V112.03C496.831 109.86 495.966 107.778 494.427 106.244C492.887 104.709 490.8 103.847 488.623 103.847C486.446 103.847 484.358 104.709 482.818 106.244C481.279 107.778 480.414 109.86 480.414 112.03V112.774C480.41 114.32 479.952 115.831 479.097 117.121C478.242 118.411 477.028 119.424 475.603 120.034H475.346H475.127C473.686 120.64 472.097 120.808 470.561 120.516C469.025 120.223 467.61 119.485 466.494 118.392L466.211 118.11C464.635 116.8 462.625 116.125 460.575 116.217C458.525 116.309 456.584 117.163 455.133 118.609C453.682 120.056 452.827 121.991 452.734 124.035C452.641 126.079 453.318 128.083 454.632 129.654L454.89 129.911C455.964 131.065 456.686 132.5 456.97 134.049C457.255 135.598 457.091 137.195 456.496 138.654C455.902 140.112 454.903 141.372 453.615 142.284C452.328 143.196 450.806 143.723 449.229 143.802H448.817C446.64 143.802 444.553 144.665 443.013 146.199C441.474 147.734 440.609 149.816 440.609 151.986C440.609 154.156 441.474 156.238 443.013 157.773C444.553 159.307 446.64 160.17 448.817 160.17H449.577C451.143 160.183 452.67 160.655 453.97 161.526C455.27 162.398 456.285 163.63 456.889 165.07C457.493 166.511 457.659 168.097 457.368 169.631C457.077 171.166 456.34 172.581 455.25 173.702L454.98 173.971C453.444 175.498 452.576 177.568 452.564 179.73C452.552 181.892 453.397 183.972 454.916 185.516L455.031 185.631C456.569 187.157 458.651 188.013 460.821 188.013C462.99 188.013 465.072 187.157 466.61 185.631L466.88 185.374C468.367 183.932 470.364 183.13 472.438 183.142H472.399Z" fill="#E3E3E3"/>
        <path d="M304.574 247.263H234.085C233.915 247.26 233.753 247.191 233.633 247.072C233.513 246.952 233.445 246.791 233.441 246.622C233.441 246.452 233.509 246.288 233.63 246.168C233.75 246.048 233.914 245.98 234.085 245.98H304.574C304.744 245.98 304.908 246.048 305.028 246.168C305.149 246.288 305.217 246.452 305.217 246.622C305.217 246.792 305.149 246.955 305.028 247.075C304.908 247.196 304.744 247.263 304.574 247.263Z" fill="#E3E3E3"/>
        <path d="M407.723 320.569H357.909C357.738 320.569 357.575 320.502 357.454 320.382C357.333 320.261 357.266 320.098 357.266 319.928C357.266 319.758 357.333 319.595 357.454 319.475C357.575 319.354 357.738 319.287 357.909 319.287H407.723C407.893 319.287 408.057 319.354 408.178 319.475C408.298 319.595 408.366 319.758 408.366 319.928C408.366 320.098 408.298 320.261 408.178 320.382C408.057 320.502 407.893 320.569 407.723 320.569Z" fill="#E3E3E3"/>
        <path d="M392.495 333.127H357.952C357.781 333.127 357.618 333.06 357.497 332.939C357.376 332.819 357.309 332.656 357.309 332.486C357.309 332.316 357.376 332.153 357.497 332.033C357.618 331.912 357.781 331.845 357.952 331.845H392.495C392.666 331.845 392.829 331.912 392.95 332.033C393.071 332.153 393.139 332.316 393.139 332.486C393.135 332.655 393.066 332.816 392.946 332.936C392.826 333.055 392.665 333.124 392.495 333.127V333.127Z" fill="#E3E3E3"/>
        <path d="M401.496 345.684H357.909C357.738 345.684 357.575 345.617 357.454 345.497C357.333 345.376 357.266 345.213 357.266 345.043C357.266 344.873 357.333 344.71 357.454 344.59C357.575 344.469 357.738 344.402 357.909 344.402H401.496C401.667 344.402 401.83 344.469 401.951 344.59C402.072 344.71 402.14 344.873 402.14 345.043C402.14 345.213 402.072 345.376 401.951 345.497C401.83 345.617 401.667 345.684 401.496 345.684Z" fill="#E3E3E3"/>
        <path d="M304.574 272.828H234.085C233.915 272.825 233.753 272.756 233.633 272.637C233.513 272.517 233.445 272.356 233.441 272.187C233.441 272.017 233.509 271.854 233.63 271.733C233.75 271.613 233.914 271.545 234.085 271.545H304.574C304.744 271.545 304.908 271.613 305.028 271.733C305.149 271.854 305.217 272.017 305.217 272.187C305.217 272.357 305.149 272.52 305.028 272.64C304.908 272.76 304.744 272.828 304.574 272.828Z" fill="#E3E3E3"/>
        <path d="M304.574 298.392H234.085C233.915 298.389 233.753 298.32 233.633 298.201C233.513 298.081 233.445 297.92 233.441 297.751C233.441 297.581 233.509 297.417 233.63 297.297C233.75 297.177 233.914 297.109 234.085 297.109H304.574C304.744 297.109 304.908 297.177 305.028 297.297C305.149 297.417 305.217 297.581 305.217 297.751C305.217 297.921 305.149 298.084 305.028 298.204C304.908 298.324 304.744 298.392 304.574 298.392Z" fill="#E3E3E3"/>
        <path d="M304.574 323.943H234.085C233.914 323.943 233.75 323.875 233.63 323.755C233.509 323.635 233.441 323.472 233.441 323.302C233.445 323.132 233.513 322.971 233.633 322.852C233.753 322.732 233.915 322.663 234.085 322.66H304.574C304.744 322.66 304.908 322.728 305.028 322.848C305.149 322.968 305.217 323.131 305.217 323.302C305.217 323.472 305.149 323.635 305.028 323.755C304.908 323.875 304.744 323.943 304.574 323.943Z" fill="#E3E3E3"/>
        <path d="M171.932 242.312C167.632 242.371 163.413 241.137 159.826 238.772C158.483 237.953 157.354 236.828 156.532 235.491C155.709 234.153 155.216 232.64 155.092 231.076C154.461 221.995 165.796 211.618 166.272 211.169L166.464 211.002H475.398C475.569 211.002 475.732 211.069 475.853 211.19C475.974 211.31 476.041 211.473 476.041 211.643C476.041 211.813 475.974 211.976 475.853 212.097C475.732 212.217 475.569 212.285 475.398 212.285H166.966C165.513 213.657 155.825 223.123 156.378 230.986C156.496 232.354 156.936 233.674 157.662 234.84C158.389 236.006 159.382 236.984 160.559 237.695C169.437 243.736 182.147 240.465 186.663 235.668C187.949 234.385 189.082 232.333 187.525 230.358C182.585 224.06 166.941 225.586 162.489 227.254C162.329 227.313 162.151 227.307 161.996 227.236C161.84 227.165 161.719 227.035 161.659 226.875C161.6 226.715 161.606 226.538 161.677 226.383C161.748 226.228 161.879 226.107 162.039 226.048C166.323 224.457 182.958 222.456 188.541 229.562C190.162 231.64 189.828 234.18 187.602 236.54C184.592 239.773 178.442 242.312 171.932 242.312Z" fill="#E3E3E3"/>
        <path d="M339.151 350.777C338.98 350.777 338.817 350.709 338.696 350.589C338.576 350.469 338.508 350.306 338.508 350.135V225.715C338.511 225.546 338.58 225.384 338.7 225.265C338.82 225.145 338.982 225.077 339.151 225.073C339.322 225.073 339.485 225.141 339.606 225.261C339.727 225.381 339.794 225.544 339.794 225.715V350.135C339.794 350.306 339.727 350.469 339.606 350.589C339.485 350.709 339.322 350.777 339.151 350.777Z" fill="#E3E3E3"/>
        <path d="M473.866 343.787C483.977 343.787 492.173 335.615 492.173 325.534C492.173 315.454 483.977 307.282 473.866 307.282C463.755 307.282 455.559 315.454 455.559 325.534C455.559 335.615 463.755 343.787 473.866 343.787Z" fill="#71A5D2"/>
        <path d="M467.908 349.328C463.674 349.328 459.535 348.076 456.014 345.731C452.494 343.386 449.75 340.052 448.129 336.152C446.509 332.252 446.085 327.96 446.911 323.82C447.737 319.68 449.776 315.877 452.77 312.892C455.764 309.907 459.578 307.874 463.731 307.05C467.884 306.227 472.188 306.649 476.1 308.265C480.012 309.88 483.355 312.616 485.708 316.126C488.06 319.636 489.315 323.763 489.315 327.984C489.308 333.643 487.051 339.068 483.038 343.069C479.025 347.07 473.584 349.321 467.908 349.328V349.328ZM467.908 307.923C463.928 307.923 460.038 309.099 456.729 311.304C453.42 313.508 450.841 316.641 449.318 320.307C447.795 323.973 447.397 328.006 448.173 331.898C448.95 335.789 450.866 339.364 453.68 342.17C456.494 344.975 460.079 346.886 463.982 347.66C467.886 348.434 471.931 348.037 475.608 346.518C479.284 345 482.427 342.429 484.638 339.13C486.849 335.83 488.029 331.952 488.029 327.984C488.022 322.667 485.9 317.569 482.128 313.811C478.355 310.052 473.241 307.939 467.908 307.936V307.923Z" fill="#E3E3E3"/>
        <path d="M464.05 335.949L457.154 329.087C457.033 328.966 456.965 328.803 456.965 328.632C456.965 328.461 457.033 328.297 457.154 328.176C457.275 328.056 457.44 327.988 457.611 327.988C457.783 327.988 457.947 328.056 458.068 328.176L464.05 334.141L477.738 320.48C477.861 320.362 478.025 320.296 478.196 320.296C478.366 320.296 478.53 320.362 478.652 320.48C478.713 320.54 478.76 320.611 478.793 320.689C478.826 320.767 478.842 320.851 478.842 320.936C478.842 321.02 478.826 321.104 478.793 321.182C478.76 321.26 478.713 321.331 478.652 321.391L464.05 335.949Z" fill="#E3E3E3"/>
        <path d="M180.717 52.167V70.1247C180.717 71.2677 181.172 72.3639 181.983 73.1722C182.794 73.9804 183.893 74.4345 185.04 74.4345H201.945C202.14 74.4334 202.331 74.3828 202.501 74.2873C202.671 74.1919 202.813 74.0548 202.915 73.8891C203.017 73.7235 203.074 73.5346 203.083 73.3405C203.091 73.1464 203.049 72.9534 202.961 72.7799C196.915 60.8252 186.545 53.6293 182.454 51.1409C182.278 51.0291 182.073 50.9682 181.864 50.965C181.655 50.9618 181.449 51.0163 181.269 51.1226C181.09 51.2288 180.943 51.3827 180.845 51.567C180.748 51.7514 180.704 51.959 180.717 52.167V52.167Z" fill="#EAB669"/>
        <path d="M206.749 73.2026H188.043C186.754 73.1992 185.519 72.6873 184.608 71.7788C183.697 70.8702 183.183 69.639 183.18 68.3541V48.3698C183.18 48.2996 183.194 48.2302 183.221 48.1655C183.248 48.1009 183.289 48.0423 183.339 47.9933C183.39 47.9443 183.449 47.9058 183.515 47.8802C183.58 47.8545 183.65 47.8422 183.721 47.8439C183.86 47.8439 183.994 47.8993 184.093 47.9979C184.192 48.0965 184.248 48.2303 184.248 48.3698V68.4182C184.264 69.4166 184.67 70.3695 185.378 71.0756C186.086 71.7817 187.042 72.1857 188.043 72.2022H206.749C206.82 72.2005 206.889 72.2128 206.955 72.2384C207.02 72.2641 207.08 72.3025 207.131 72.3515C207.181 72.4006 207.221 72.4591 207.248 72.5238C207.275 72.5884 207.29 72.6579 207.29 72.728C207.274 72.8595 207.21 72.9807 207.11 73.0682C207.01 73.1558 206.882 73.2036 206.749 73.2026V73.2026Z" fill="#E3E3E3"/>
        <path d="M202.192 133.989H148.158C146.793 133.989 145.484 133.449 144.519 132.487C143.554 131.524 143.012 130.219 143.012 128.859V52.9105C143.012 51.5498 143.554 50.2447 144.519 49.2825C145.484 48.3203 146.793 47.7798 148.158 47.7798H183.897L184.013 47.8567C184.194 47.9594 201.536 58.1183 207.287 72.4203V72.6127V128.859C207.287 130.211 206.752 131.508 205.798 132.469C204.844 133.429 203.548 133.976 202.192 133.989V133.989ZM148.158 48.8958C147.092 48.8992 146.071 49.3236 145.318 50.0762C144.566 50.8287 144.144 51.848 144.144 52.9105V128.91C144.144 129.972 144.566 130.992 145.318 131.744C146.071 132.497 147.092 132.921 148.158 132.925H202.192C203.259 132.921 204.281 132.497 205.036 131.745C205.79 130.993 206.215 129.974 206.219 128.91V72.7666C200.802 59.4395 185.107 49.8193 183.563 48.8958H148.158Z" fill="#E3E3E3"/>
        <path d="M160.923 45.1383C160.78 45.1383 160.642 45.0816 160.541 44.9806C160.44 44.8796 160.383 44.7425 160.383 44.5996V37.6346H135.939C135.795 37.6346 135.658 37.5779 135.557 37.4769C135.455 37.3759 135.398 37.2388 135.398 37.0959C135.398 37.0258 135.412 36.9563 135.439 36.8917C135.467 36.827 135.507 36.7684 135.557 36.7194C135.608 36.6704 135.667 36.632 135.733 36.6063C135.798 36.5806 135.868 36.5683 135.939 36.57H161.425V44.5612C161.432 44.6323 161.424 44.7041 161.402 44.7723C161.38 44.8404 161.346 44.9034 161.299 44.9574C161.252 45.0114 161.194 45.0553 161.13 45.0864C161.065 45.1175 160.995 45.1352 160.923 45.1383V45.1383Z" fill="#E3E3E3"/>
        <path d="M161.444 145.764H135.958C135.815 145.764 135.678 145.708 135.576 145.607C135.475 145.506 135.418 145.369 135.418 145.226C135.418 145.156 135.431 145.086 135.459 145.021C135.486 144.957 135.527 144.898 135.577 144.849C135.627 144.8 135.687 144.762 135.752 144.736C135.818 144.71 135.888 144.698 135.958 144.7H160.402V137.76C160.402 137.69 160.416 137.621 160.444 137.556C160.471 137.491 160.511 137.433 160.561 137.384C160.611 137.335 160.671 137.296 160.736 137.271C160.802 137.245 160.872 137.233 160.942 137.235C161.082 137.235 161.217 137.29 161.316 137.389C161.415 137.487 161.47 137.621 161.47 137.76L161.444 145.764Z" fill="#E3E3E3"/>
        <path d="M209.539 145.764H184.078V137.76C184.078 137.69 184.092 137.621 184.12 137.556C184.147 137.491 184.187 137.433 184.237 137.384C184.287 137.335 184.347 137.296 184.413 137.271C184.478 137.245 184.548 137.233 184.618 137.235C184.758 137.235 184.893 137.29 184.992 137.389C185.09 137.487 185.146 137.621 185.146 137.76V144.7H209.59C209.73 144.7 209.864 144.755 209.963 144.854C210.062 144.952 210.118 145.086 210.118 145.226C210.12 145.3 210.106 145.375 210.077 145.444C210.048 145.513 210.005 145.574 209.95 145.625C209.895 145.676 209.83 145.715 209.759 145.739C209.688 145.763 209.613 145.772 209.539 145.764V145.764Z" fill="#E3E3E3"/>
        <path d="M138.832 79.9636H114.221C114.15 79.9653 114.08 79.9529 114.015 79.9273C113.949 79.9016 113.89 79.8631 113.839 79.8141C113.789 79.7651 113.748 79.7066 113.721 79.642C113.694 79.5773 113.68 79.5079 113.68 79.4377C113.68 79.2948 113.737 79.1578 113.838 79.0568C113.939 78.9557 114.077 78.8989 114.221 78.8989H138.832C138.902 78.8989 138.972 78.913 139.036 78.9402C139.101 78.9674 139.16 79.0073 139.209 79.0575C139.258 79.1077 139.297 79.1672 139.323 79.2325C139.349 79.2978 139.361 79.3676 139.359 79.4377C139.359 79.5772 139.304 79.711 139.205 79.8096C139.106 79.9082 138.972 79.9636 138.832 79.9636V79.9636Z" fill="#E3E3E3"/>
        <path d="M187.667 88.4798H163.056C162.913 88.4798 162.775 88.423 162.673 88.322C162.572 88.221 162.516 88.0839 162.516 87.9411C162.516 87.8709 162.529 87.8015 162.556 87.7368C162.584 87.6721 162.624 87.6137 162.675 87.5646C162.725 87.5156 162.784 87.4772 162.85 87.4515C162.915 87.4259 162.986 87.4135 163.056 87.4152H187.667C187.737 87.4135 187.808 87.4259 187.873 87.4515C187.938 87.4772 187.998 87.5156 188.048 87.5646C188.099 87.6137 188.138 87.6721 188.166 87.7368C188.193 87.8015 188.207 87.8709 188.207 87.9411C188.207 88.0839 188.15 88.221 188.049 88.322C187.948 88.423 187.81 88.4798 187.667 88.4798V88.4798Z" fill="#E3E3E3"/>
        <path d="M187.667 97.433H163.056C162.913 97.433 162.775 97.3762 162.673 97.2752C162.572 97.1742 162.516 97.0371 162.516 96.8943C162.516 96.8241 162.529 96.7547 162.556 96.69C162.584 96.6254 162.624 96.5668 162.675 96.5178C162.725 96.4688 162.784 96.4303 162.85 96.4046C162.915 96.379 162.986 96.3666 163.056 96.3683H187.667C187.737 96.3666 187.808 96.379 187.873 96.4046C187.938 96.4303 187.998 96.4688 188.048 96.5178C188.099 96.5668 188.138 96.6254 188.166 96.69C188.193 96.7547 188.207 96.8241 188.207 96.8943C188.207 97.0371 188.15 97.1742 188.049 97.2752C187.948 97.3762 187.81 97.433 187.667 97.433V97.433Z" fill="#E3E3E3"/>
        <path d="M187.672 106.014H163.061C162.984 106.026 162.905 106.021 162.83 106C162.755 105.979 162.686 105.941 162.627 105.891C162.567 105.84 162.52 105.777 162.487 105.707C162.455 105.636 162.438 105.559 162.438 105.482C162.438 105.404 162.455 105.327 162.487 105.256C162.52 105.186 162.567 105.123 162.627 105.072C162.686 105.022 162.755 104.985 162.83 104.963C162.905 104.942 162.984 104.937 163.061 104.949H187.672C187.749 104.937 187.828 104.942 187.903 104.963C187.978 104.985 188.048 105.022 188.107 105.072C188.166 105.123 188.214 105.186 188.247 105.256C188.279 105.327 188.296 105.404 188.296 105.482C188.296 105.559 188.279 105.636 188.247 105.707C188.214 105.777 188.166 105.84 188.107 105.891C188.048 105.941 187.978 105.979 187.903 106C187.828 106.021 187.749 106.026 187.672 106.014V106.014Z" fill="#E3E3E3"/>
        <path d="M138.825 106.014H114.214C114.137 106.026 114.057 106.021 113.982 106C113.907 105.979 113.838 105.941 113.779 105.891C113.72 105.84 113.672 105.777 113.639 105.707C113.607 105.636 113.59 105.559 113.59 105.482C113.59 105.404 113.607 105.327 113.639 105.256C113.672 105.186 113.72 105.123 113.779 105.072C113.838 105.022 113.907 104.985 113.982 104.963C114.057 104.942 114.137 104.937 114.214 104.949H138.825C138.952 104.969 139.068 105.034 139.152 105.131C139.236 105.229 139.282 105.353 139.282 105.482C139.282 105.61 139.236 105.734 139.152 105.832C139.068 105.93 138.952 105.994 138.825 106.014Z" fill="#E3E3E3"/>
        <path d="M243.94 83.4638C247.272 83.4638 249.974 80.7704 249.974 77.448C249.974 74.1255 247.272 71.4321 243.94 71.4321C240.608 71.4321 237.906 74.1255 237.906 77.448C237.906 80.7704 240.608 83.4638 243.94 83.4638Z" fill="#71A5D2"/>
        <path d="M244.854 111.492C248.187 111.492 250.888 108.798 250.888 105.476C250.888 102.153 248.187 99.46 244.854 99.46C241.522 99.46 238.82 102.153 238.82 105.476C238.82 108.798 241.522 111.492 244.854 111.492Z" fill="#71A5D2"/>
        <path d="M217.397 153.526C220.729 153.526 223.431 150.832 223.431 147.51C223.431 144.188 220.729 141.494 217.397 141.494C214.065 141.494 211.363 144.188 211.363 147.51C211.363 150.832 214.065 153.526 217.397 153.526Z" fill="#71A5D2"/>
        <path d="M128.999 153.526C132.331 153.526 135.032 150.832 135.032 147.51C135.032 144.188 132.331 141.494 128.999 141.494C125.666 141.494 122.965 144.188 122.965 147.51C122.965 150.832 125.666 153.526 128.999 153.526Z" fill="#71A5D2"/>
        <path d="M104.854 111.492C108.187 111.492 110.888 108.798 110.888 105.476C110.888 102.153 108.187 99.46 104.854 99.46C101.522 99.46 98.8203 102.153 98.8203 105.476C98.8203 108.798 101.522 111.492 104.854 111.492Z" fill="#71A5D2"/>
        <path d="M105.881 82.8739C109.214 82.8739 111.915 80.1805 111.915 76.8581C111.915 73.5357 109.214 70.8423 105.881 70.8423C102.549 70.8423 99.8477 73.5357 99.8477 76.8581C99.8477 80.1805 102.549 82.8739 105.881 82.8739Z" fill="#71A5D2"/>
        <path d="M130.71 45.8558C134.042 45.8558 136.743 43.1625 136.743 39.84C136.743 36.5176 134.042 33.8242 130.71 33.8242C127.377 33.8242 124.676 36.5176 124.676 39.84C124.676 43.1625 127.377 45.8558 130.71 45.8558Z" fill="#71A5D2"/>
        <path d="M241.969 85.9275C240.668 85.9275 239.397 85.5427 238.315 84.8219C237.234 84.1011 236.391 83.0767 235.894 81.8783C235.396 80.6798 235.267 79.3613 235.522 78.0895C235.777 76.8177 236.404 75.6498 237.325 74.7336C238.245 73.8175 239.418 73.1942 240.694 72.9428C241.97 72.6913 243.293 72.8229 244.494 73.321C245.695 73.819 246.721 74.6612 247.442 75.7407C248.163 76.8203 248.545 78.0888 248.543 79.3857C248.54 81.1219 247.846 82.7858 246.613 84.0122C245.381 85.2386 243.71 85.9275 241.969 85.9275ZM241.969 73.8958C240.879 73.8933 239.814 74.2131 238.906 74.8148C237.999 75.4165 237.291 76.273 236.872 77.2759C236.454 78.2788 236.343 79.3831 236.554 80.4489C236.765 81.5147 237.288 82.4941 238.058 83.2631C238.827 84.0322 239.809 84.5563 240.877 84.7692C241.946 84.982 243.053 84.8741 244.06 84.4589C245.067 84.0438 245.928 83.3402 246.533 82.4371C247.139 81.534 247.462 80.4721 247.462 79.3857C247.462 77.9319 246.884 76.5375 245.854 75.5083C244.824 74.4791 243.427 73.8992 241.969 73.8958V73.8958Z" fill="#E3E3E3"/>
        <path d="M235.959 79.9636H211.348C211.208 79.9636 211.074 79.9082 210.975 79.8096C210.876 79.711 210.82 79.5772 210.82 79.4377C210.819 79.3676 210.831 79.2978 210.857 79.2325C210.883 79.1672 210.921 79.1077 210.97 79.0575C211.019 79.0073 211.078 78.9674 211.143 78.9402C211.208 78.913 211.278 78.8989 211.348 78.8989H235.959C236.03 78.8989 236.1 78.9129 236.166 78.9399C236.232 78.967 236.291 79.0067 236.341 79.0568C236.391 79.1068 236.432 79.1661 236.459 79.2315C236.486 79.2969 236.5 79.367 236.5 79.4377C236.5 79.5079 236.485 79.5773 236.458 79.642C236.431 79.7066 236.391 79.7651 236.341 79.8141C236.29 79.8631 236.23 79.9016 236.165 79.9273C236.099 79.9529 236.03 79.9653 235.959 79.9636V79.9636Z" fill="#E3E3E3"/>
        <path d="M241.969 112.029C240.668 112.029 239.397 111.645 238.315 110.924C237.234 110.203 236.391 109.179 235.894 107.98C235.396 106.782 235.267 105.463 235.522 104.192C235.777 102.92 236.404 101.752 237.325 100.836C238.245 99.9195 239.418 99.2962 240.694 99.0448C241.97 98.7933 243.293 98.925 244.494 99.4231C245.695 99.9211 246.721 100.763 247.442 101.843C248.163 102.922 248.545 104.191 248.543 105.488C248.54 107.224 247.846 108.888 246.613 110.114C245.381 111.341 243.71 112.029 241.969 112.029V112.029ZM241.969 99.9979C240.879 99.9953 239.814 100.315 238.906 100.917C237.999 101.519 237.291 102.375 236.872 103.378C236.454 104.381 236.343 105.485 236.554 106.551C236.765 107.617 237.288 108.596 238.058 109.365C238.827 110.134 239.809 110.658 240.877 110.871C241.946 111.084 243.053 110.976 244.06 110.561C245.067 110.146 245.928 109.442 246.533 108.539C247.139 107.636 247.462 106.574 247.462 105.488C247.462 104.034 246.884 102.64 245.854 101.61C244.824 100.581 243.427 100.001 241.969 99.9979Z" fill="#E3E3E3"/>
        <path d="M235.959 106.014H211.348C211.221 105.994 211.105 105.93 211.021 105.832C210.937 105.734 210.891 105.61 210.891 105.482C210.891 105.353 210.937 105.229 211.021 105.131C211.105 105.034 211.221 104.969 211.348 104.949H235.959C236.036 104.937 236.115 104.942 236.19 104.963C236.265 104.985 236.335 105.022 236.394 105.072C236.453 105.123 236.501 105.186 236.533 105.256C236.566 105.327 236.582 105.404 236.582 105.482C236.582 105.559 236.566 105.636 236.533 105.707C236.501 105.777 236.453 105.84 236.394 105.891C236.335 105.941 236.265 105.979 236.19 106C236.115 106.021 236.036 106.026 235.959 106.014V106.014Z" fill="#E3E3E3"/>
        <path d="M215.567 151.793C214.267 151.796 212.994 151.414 211.911 150.695C210.829 149.976 209.984 148.953 209.485 147.756C208.985 146.558 208.853 145.24 209.105 143.968C209.357 142.696 209.982 141.526 210.901 140.609C211.82 139.691 212.991 139.065 214.267 138.811C215.543 138.557 216.866 138.686 218.068 139.182C219.27 139.677 220.297 140.518 221.02 141.596C221.743 142.674 222.129 143.942 222.129 145.239C222.129 146.975 221.438 148.64 220.208 149.869C218.978 151.098 217.309 151.79 215.567 151.793ZM215.567 139.762C214.477 139.759 213.411 140.079 212.504 140.681C211.596 141.284 210.888 142.141 210.47 143.145C210.051 144.148 209.942 145.253 210.154 146.319C210.366 147.386 210.89 148.365 211.661 149.133C212.432 149.902 213.414 150.425 214.484 150.637C215.553 150.848 216.661 150.738 217.667 150.321C218.674 149.904 219.534 149.198 220.138 148.294C220.742 147.389 221.063 146.326 221.061 145.239C221.061 143.785 220.483 142.39 219.453 141.361C218.423 140.332 217.026 139.752 215.567 139.749V139.762Z" fill="#E3E3E3"/>
        <path d="M129.927 151.793C128.626 151.796 127.354 151.414 126.271 150.695C125.188 149.976 124.343 148.953 123.844 147.756C123.344 146.558 123.213 145.24 123.465 143.968C123.717 142.696 124.342 141.526 125.261 140.609C126.18 139.691 127.351 139.065 128.627 138.811C129.902 138.557 131.224 138.686 132.426 139.182C133.628 139.677 134.656 140.518 135.379 141.596C136.102 142.674 136.488 143.942 136.488 145.239C136.488 146.975 135.797 148.64 134.567 149.869C133.337 151.098 131.668 151.79 129.927 151.793V151.793ZM129.927 139.762C128.837 139.759 127.77 140.079 126.863 140.681C125.955 141.284 125.248 142.141 124.829 143.145C124.411 144.148 124.301 145.253 124.513 146.319C124.725 147.386 125.249 148.365 126.02 149.133C126.791 149.902 127.773 150.425 128.843 150.637C129.912 150.848 131.02 150.738 132.027 150.321C133.034 149.904 133.894 149.198 134.498 148.294C135.102 147.389 135.423 146.326 135.42 145.239C135.42 143.785 134.842 142.39 133.812 141.361C132.782 140.332 131.385 139.752 129.927 139.749V139.762Z" fill="#E3E3E3"/>
        <path d="M129.927 43.6881C128.626 43.6907 127.354 43.3084 126.271 42.5897C125.188 41.8711 124.343 40.8483 123.844 39.6508C123.344 38.4534 123.213 37.1351 123.465 35.8628C123.717 34.5905 124.342 33.4214 125.261 32.5034C126.18 31.5855 127.351 30.96 128.627 30.706C129.902 30.4521 131.224 30.5811 132.426 31.0768C133.628 31.5725 134.656 32.4127 135.379 33.4908C136.102 34.569 136.488 35.8367 136.488 37.1336C136.488 38.8698 135.797 40.535 134.567 41.7639C133.337 42.9927 131.668 43.6847 129.927 43.6881V43.6881ZM129.927 31.6566C128.837 31.6541 127.77 31.9741 126.863 32.5764C125.955 33.1787 125.248 34.0359 124.829 35.0396C124.411 36.0433 124.301 37.1482 124.513 38.2143C124.725 39.2805 125.249 40.2599 126.02 41.0284C126.791 41.797 127.773 42.3201 128.843 42.5315C129.912 42.7429 131.02 42.6331 132.027 42.216C133.034 41.7989 133.894 41.0932 134.498 40.1885C135.102 39.2837 135.423 38.2205 135.42 37.1336C135.417 35.682 134.837 34.2909 133.807 33.2645C132.778 32.2381 131.383 31.66 129.927 31.6566V31.6566Z" fill="#E3E3E3"/>
        <path d="M108.173 85.9274C106.872 85.93 105.599 85.5473 104.516 84.8281C103.433 84.1089 102.588 83.0853 102.089 81.8871C101.59 80.6889 101.458 79.3699 101.712 78.0973C101.965 76.8246 102.591 75.6556 103.511 74.7381C104.431 73.8207 105.604 73.1962 106.881 72.9437C108.157 72.6912 109.48 72.8221 110.682 73.3198C111.884 73.8175 112.911 74.6595 113.632 75.7394C114.353 76.8192 114.737 78.0882 114.735 79.3857C114.731 81.1196 114.039 82.7816 112.809 84.0076C111.579 85.2337 109.912 85.924 108.173 85.9274V85.9274ZM108.173 73.8958C107.083 73.8933 106.018 74.2131 105.111 74.8148C104.203 75.4165 103.495 76.273 103.077 77.2759C102.658 78.2788 102.547 79.3831 102.758 80.4488C102.969 81.5146 103.492 82.494 104.262 83.2631C105.032 84.0322 106.013 84.5563 107.081 84.7691C108.15 84.982 109.257 84.874 110.264 84.4589C111.271 84.0437 112.132 83.3402 112.737 82.4371C113.343 81.534 113.667 80.472 113.667 79.3857C113.667 77.9319 113.088 76.5375 112.058 75.5083C111.029 74.4791 109.631 73.8992 108.173 73.8958V73.8958Z" fill="#E3E3E3"/>
        <path d="M108.173 112.03C106.872 112.032 105.599 111.65 104.516 110.93C103.433 110.211 102.588 109.187 102.089 107.989C101.59 106.791 101.458 105.472 101.712 104.199C101.965 102.927 102.591 101.758 103.511 100.84C104.431 99.9227 105.604 99.2982 106.881 99.0457C108.157 98.7932 109.48 98.9241 110.682 99.4218C111.884 99.9195 112.911 100.762 113.632 101.841C114.353 102.921 114.737 104.19 114.735 105.488C114.731 107.222 114.039 108.884 112.809 110.11C111.579 111.336 109.912 112.026 108.173 112.03V112.03ZM108.173 99.9979C107.083 99.9953 106.018 100.315 105.111 100.917C104.203 101.519 103.495 102.375 103.077 103.378C102.658 104.381 102.547 105.485 102.758 106.551C102.969 107.617 103.492 108.596 104.262 109.365C105.032 110.134 106.013 110.658 107.081 110.871C108.15 111.084 109.257 110.976 110.264 110.561C111.271 110.146 112.132 109.442 112.737 108.539C113.343 107.636 113.667 106.574 113.667 105.488C113.667 104.034 113.088 102.64 112.058 101.61C111.029 100.581 109.631 100.001 108.173 99.9979V99.9979Z" fill="#E3E3E3"/>
        <path d="M131.008 321.494H12.969C9.51482 321.49 6.20298 320.12 3.76169 317.683C1.3204 315.247 -0.0507829 311.944 -0.0507812 308.5V181.514C-0.0507829 178.07 1.3204 174.767 3.76169 172.33C6.20298 169.894 9.51482 168.523 12.969 168.52H130.956C134.412 168.523 137.725 169.893 140.168 172.329C142.611 174.765 143.985 178.069 143.989 181.514V308.5C143.985 311.936 142.619 315.231 140.186 317.666C137.754 320.101 134.454 321.477 131.008 321.494V321.494ZM12.969 169.867C9.85707 169.874 6.87498 171.11 4.6757 173.305C2.47642 175.5 1.23914 178.475 1.23575 181.578V308.564C1.23574 311.668 2.47191 314.644 4.67193 316.84C6.87195 319.036 9.85603 320.271 12.969 320.275H130.956C132.499 320.275 134.027 319.972 135.452 319.383C136.877 318.795 138.172 317.932 139.262 316.845C140.353 315.757 141.218 314.466 141.808 313.046C142.399 311.625 142.702 310.102 142.702 308.564V181.578C142.699 178.473 141.461 175.496 139.259 173.301C137.056 171.105 134.071 169.87 130.956 169.867H12.969Z" fill="#E3E3E3"/>
        <rect x="8.96094" y="332.216" width="134.457" height="23.0883" rx="9" fill="#CE7783"/>
        <path d="M131.005 361H12.9665C9.58267 360.894 6.3728 359.48 4.01676 357.056C1.66072 354.632 0.34375 351.389 0.34375 348.013C0.34375 344.638 1.66072 341.395 4.01676 338.971C6.3728 336.547 9.58267 335.132 12.9665 335.026H130.954C132.699 334.971 134.437 335.267 136.066 335.895C137.694 336.523 139.179 337.471 140.433 338.682C141.686 339.893 142.684 341.344 143.364 342.947C144.045 344.55 144.396 346.272 144.396 348.013C144.396 349.754 144.045 351.477 143.364 353.08C142.684 354.683 141.686 356.133 140.433 357.344C139.179 358.556 137.694 359.503 136.066 360.132C134.437 360.76 132.699 361.055 130.954 361H131.005ZM12.9665 336.309C9.92028 336.409 7.03244 337.686 4.91318 339.87C2.79393 342.055 1.60892 344.974 1.60892 348.013C1.60892 351.052 2.79393 353.972 4.91318 356.156C7.03244 358.34 9.92028 359.617 12.9665 359.718H130.954C132.528 359.77 134.097 359.505 135.567 358.941C137.037 358.376 138.378 357.522 139.51 356.43C140.642 355.338 141.542 354.03 142.157 352.584C142.772 351.138 143.089 349.584 143.089 348.013C143.089 346.443 142.772 344.888 142.157 343.442C141.542 341.996 140.642 340.688 139.51 339.596C138.378 338.504 137.037 337.651 135.567 337.086C134.097 336.521 132.528 336.257 130.954 336.309H12.9665Z" fill="#E3E3E3"/>
        <path d="M73.5387 213.851H34.5183C34.3477 213.851 34.1841 213.783 34.0635 213.663C33.9428 213.542 33.875 213.379 33.875 213.209C33.875 213.039 33.9428 212.876 34.0635 212.756C34.1841 212.635 34.3477 212.568 34.5183 212.568H73.5387C73.7093 212.568 73.8729 212.635 73.9935 212.756C74.1142 212.876 74.182 213.039 74.182 213.209C74.182 213.379 74.1142 213.542 73.9935 213.663C73.8729 213.783 73.7093 213.851 73.5387 213.851Z" fill="#E3E3E3"/>
        <path d="M88.5641 221.879H34.53C34.3594 221.879 34.1958 221.812 34.0752 221.692C33.9545 221.571 33.8867 221.408 33.8867 221.238C33.8867 221.068 33.9545 220.905 34.0752 220.785C34.1958 220.664 34.3594 220.597 34.53 220.597H88.5641C88.7347 220.597 88.8989 220.664 89.0195 220.785C89.1402 220.905 89.2074 221.068 89.2074 221.238C89.2074 221.408 89.1402 221.571 89.0195 221.692C88.8989 221.812 88.7347 221.879 88.5641 221.879Z" fill="#E3E3E3"/>
        <path d="M99.0563 348.648H45.0222C44.8516 348.648 44.688 348.58 44.5674 348.46C44.4467 348.34 44.3789 348.177 44.3789 348.007C44.3789 347.836 44.4467 347.673 44.5674 347.553C44.688 347.433 44.8516 347.365 45.0222 347.365H99.0563C99.2259 347.369 99.3874 347.437 99.5074 347.557C99.6273 347.676 99.6963 347.837 99.6996 348.007C99.6996 348.177 99.6318 348.34 99.5111 348.46C99.3905 348.58 99.2269 348.648 99.0563 348.648Z" fill="#E3E3E3"/>
        <path d="M105.047 221.879H93.7644C93.5938 221.879 93.4302 221.812 93.3096 221.692C93.1889 221.571 93.1211 221.408 93.1211 221.238C93.1211 221.068 93.1889 220.905 93.3096 220.785C93.4302 220.664 93.5938 220.597 93.7644 220.597H105.047C105.218 220.597 105.381 220.664 105.502 220.785C105.623 220.905 105.69 221.068 105.69 221.238C105.69 221.408 105.623 221.571 105.502 221.692C105.381 221.812 105.218 221.879 105.047 221.879Z" fill="#E3E3E3"/>
        <path d="M93.763 213.851H78.4792C78.3086 213.851 78.145 213.783 78.0244 213.663C77.9038 213.542 77.8359 213.379 77.8359 213.209C77.8359 213.039 77.9038 212.876 78.0244 212.756C78.145 212.635 78.3086 212.568 78.4792 212.568H93.763C93.9336 212.568 94.0972 212.635 94.2178 212.756C94.3384 212.876 94.4063 213.039 94.4063 213.209C94.4063 213.379 94.3384 213.542 94.2178 213.663C94.0972 213.783 93.9336 213.851 93.763 213.851Z" fill="#E3E3E3"/>
        <path d="M432.095 281.242C431.984 281.241 431.876 281.212 431.78 281.158C431.683 281.104 431.602 281.027 431.542 280.935C431.457 280.786 431.434 280.61 431.477 280.445C431.52 280.279 431.626 280.137 431.773 280.049L458.006 264.529L431.375 248.457C431.23 248.367 431.126 248.224 431.086 248.058C431.045 247.893 431.07 247.719 431.156 247.572C431.246 247.427 431.39 247.324 431.555 247.283C431.721 247.242 431.897 247.268 432.044 247.354L460.502 264.529L432.43 281.204C432.324 281.247 432.208 281.261 432.095 281.242Z" fill="#E3E3E3"/>
        <path d="M395.816 281.242C395.702 281.243 395.591 281.211 395.494 281.152L367.422 264.477L395.88 247.302C395.952 247.258 396.031 247.229 396.114 247.216C396.197 247.203 396.282 247.207 396.364 247.227C396.445 247.248 396.522 247.284 396.589 247.334C396.656 247.384 396.713 247.448 396.755 247.52C396.8 247.591 396.83 247.671 396.844 247.754C396.858 247.838 396.855 247.923 396.836 248.005C396.817 248.087 396.782 248.165 396.732 248.234C396.683 248.302 396.621 248.36 396.549 248.405L369.918 264.477L396.15 279.998C396.224 280.04 396.29 280.097 396.341 280.165C396.393 280.233 396.43 280.311 396.45 280.393C396.471 280.476 396.474 280.562 396.46 280.646C396.446 280.73 396.415 280.811 396.369 280.883C396.317 280.986 396.238 281.074 396.141 281.137C396.044 281.2 395.932 281.236 395.816 281.242V281.242Z" fill="#E3E3E3"/>
        <path d="M400.51 295.698C400.426 295.717 400.338 295.717 400.253 295.698C400.175 295.665 400.105 295.616 400.046 295.555C399.988 295.494 399.942 295.422 399.912 295.343C399.882 295.264 399.868 295.18 399.872 295.095C399.875 295.011 399.895 294.928 399.931 294.852L426.948 236.002C427.021 235.85 427.151 235.732 427.31 235.674C427.468 235.617 427.644 235.624 427.798 235.694C427.876 235.727 427.946 235.776 428.005 235.837C428.064 235.898 428.109 235.97 428.139 236.049C428.169 236.128 428.183 236.212 428.18 236.297C428.176 236.381 428.156 236.464 428.119 236.541L401.102 295.39C401.039 295.489 400.952 295.569 400.848 295.623C400.744 295.677 400.628 295.703 400.51 295.698V295.698Z" fill="#E3E3E3"/>
        <path d="M52.6926 261.156C52.582 261.154 52.4738 261.125 52.3772 261.071C52.2807 261.017 52.1993 260.941 52.1398 260.848C52.0547 260.699 52.0312 260.524 52.0744 260.358C52.1177 260.193 52.224 260.051 52.3709 259.963L65.9825 251.907L52.1523 243.557C52.0076 243.467 51.9036 243.324 51.8627 243.159C51.8219 242.994 51.8475 242.819 51.9337 242.672C51.9784 242.6 52.037 242.538 52.1058 242.489C52.1747 242.44 52.252 242.405 52.3345 242.386C52.417 242.367 52.5029 242.364 52.5864 242.378C52.6699 242.392 52.7496 242.422 52.8214 242.467L68.4783 251.92L53.04 261.066C52.9356 261.129 52.8147 261.161 52.6926 261.156V261.156Z" fill="#E3E3E3"/>
        <path d="M114.971 226.934C114.83 226.932 114.694 226.885 114.583 226.799C114.472 226.714 114.392 226.594 114.356 226.459C114.319 226.324 114.329 226.18 114.382 226.051C114.435 225.921 114.528 225.812 114.649 225.741L128.261 217.685L114.431 209.335C114.358 209.292 114.294 209.234 114.243 209.166C114.193 209.098 114.156 209.02 114.136 208.938C114.116 208.856 114.112 208.77 114.125 208.687C114.138 208.603 114.168 208.522 114.212 208.45C114.302 208.306 114.446 208.202 114.612 208.162C114.777 208.121 114.952 208.146 115.1 208.232L130.757 217.685L115.318 226.844C115.214 226.907 115.093 226.939 114.971 226.934V226.934Z" fill="#E3E3E3"/>
        <path d="M33.281 261.156C33.1632 261.158 33.0468 261.127 32.9461 261.066L17.5078 251.921L33.1654 242.467C33.2371 242.415 33.3191 242.377 33.406 242.358C33.4929 242.339 33.5824 242.338 33.6698 242.355C33.7572 242.372 33.8405 242.407 33.9135 242.458C33.9866 242.508 34.048 242.574 34.0945 242.649C34.1409 242.725 34.171 242.81 34.183 242.898C34.195 242.986 34.1887 243.075 34.1642 243.16C34.1397 243.246 34.0979 243.325 34.0411 243.394C33.9842 243.462 33.914 243.518 33.8344 243.558L20.0042 251.908L33.6152 259.963C33.7621 260.051 33.869 260.193 33.9123 260.359C33.9556 260.524 33.932 260.7 33.847 260.848C33.7863 260.943 33.7028 261.021 33.6039 261.075C33.5049 261.128 33.3937 261.156 33.281 261.156V261.156Z" fill="#E3E3E3"/>
        <path d="M25.9099 226.933C25.7921 226.936 25.6757 226.905 25.575 226.843L10.1367 217.685L25.8326 208.232C25.98 208.146 26.155 208.12 26.3207 208.161C26.4864 208.202 26.6298 208.305 26.7202 208.45C26.7646 208.522 26.7939 208.602 26.8069 208.686C26.8199 208.77 26.8166 208.855 26.7962 208.938C26.7759 209.02 26.7394 209.097 26.6888 209.166C26.6383 209.234 26.5746 209.291 26.5016 209.335L12.6715 217.685L26.283 225.74C26.4038 225.812 26.4977 225.921 26.5506 226.05C26.6035 226.18 26.6122 226.323 26.5758 226.458C26.5393 226.594 26.46 226.713 26.349 226.799C26.238 226.885 26.1018 226.932 25.9614 226.933H25.9099Z" fill="#E3E3E3"/>
        <path d="M35.7913 268.89C35.7022 268.909 35.6097 268.909 35.5206 268.89C35.4433 268.855 35.3745 268.804 35.317 268.741C35.2596 268.678 35.2151 268.605 35.1864 268.525C35.1576 268.445 35.1449 268.36 35.1493 268.275C35.1537 268.191 35.1752 268.107 35.2121 268.031L49.6466 236.541C49.6777 236.459 49.7256 236.384 49.7867 236.321C49.8478 236.259 49.921 236.209 50.0021 236.175C50.0833 236.142 50.1706 236.125 50.2584 236.127C50.3463 236.128 50.4328 236.147 50.5129 236.183C50.5929 236.219 50.6648 236.271 50.7239 236.336C50.7831 236.4 50.8285 236.476 50.8571 236.559C50.8857 236.642 50.8965 236.73 50.8898 236.817C50.883 236.904 50.8585 236.989 50.8175 237.067L36.3831 268.518C36.3284 268.629 36.2438 268.722 36.1393 268.788C36.0349 268.853 35.9148 268.889 35.7913 268.89V268.89Z" fill="#E3E3E3"/>
        <path d="M52.6926 300.892C52.5806 300.89 52.4709 300.86 52.3741 300.804C52.2772 300.748 52.1969 300.668 52.1398 300.571C52.0962 300.499 52.0675 300.419 52.0556 300.336C52.0437 300.253 52.0484 300.168 52.07 300.087C52.0916 300.005 52.1295 299.929 52.1812 299.862C52.2329 299.796 52.2973 299.741 52.3709 299.699L65.9825 291.644L52.1523 283.294C52.0076 283.204 51.9036 283.061 51.8627 282.895C51.8219 282.73 51.8475 282.556 51.9337 282.409C52.0242 282.264 52.1675 282.161 52.3333 282.12C52.499 282.079 52.674 282.105 52.8214 282.191L68.4783 291.644L53.04 300.802C52.933 300.86 52.8139 300.89 52.6926 300.892V300.892Z" fill="#E3E3E3"/>
        <path d="M33.281 300.893C33.164 300.889 33.0492 300.859 32.9461 300.804L17.5078 291.645L33.1654 282.192C33.3121 282.103 33.4876 282.076 33.6541 282.117C33.8206 282.158 33.9643 282.263 34.053 282.41C34.1417 282.556 34.1682 282.731 34.1271 282.897C34.0861 283.063 33.9811 283.206 33.8344 283.295L20.0042 291.645L33.6152 299.7C33.6888 299.742 33.7538 299.797 33.8055 299.864C33.8572 299.93 33.8945 300.006 33.9161 300.088C33.9377 300.169 33.943 300.254 33.9311 300.337C33.9192 300.42 33.8905 300.501 33.847 300.573C33.7888 300.671 33.7057 300.752 33.6064 300.808C33.5071 300.864 33.3952 300.894 33.281 300.893Z" fill="#E3E3E3"/>
        <path d="M35.7945 308.628C35.7053 308.645 35.613 308.645 35.5238 308.628C35.447 308.593 35.3782 308.544 35.3209 308.482C35.2636 308.421 35.219 308.348 35.1902 308.269C35.1614 308.19 35.1489 308.106 35.1532 308.023C35.1574 307.939 35.1787 307.857 35.2153 307.781L49.6498 276.278C49.72 276.124 49.8494 276.003 50.0085 275.943C50.1677 275.883 50.3438 275.888 50.4991 275.957C50.6528 276.033 50.7716 276.163 50.8315 276.323C50.8913 276.483 50.8876 276.66 50.8208 276.817L36.3863 308.281C36.3282 308.387 36.2424 308.475 36.1382 308.536C36.034 308.597 35.9154 308.628 35.7945 308.628V308.628Z" fill="#E3E3E3"/>
    </g>
    <defs>
        <clipPath id="clip0_9361_46245">
            <rect width="538" height="361" fill="white"/>
        </clipPath>
    </defs>
</svg>
